<?xml version="1.0" standalone="no"?>
<!DOCTYPE svg PUBLIC "-//W3C//DTD SVG 1.1//EN" "http://www.w3.org/Graphics/SVG/1.1/DTD/svg11.dtd" >
<svg xmlns="http://www.w3.org/2000/svg">
<metadata>
Created by FontForge 20120731 at Wed Nov 11 11:46:49 2015
 By Ads
</metadata>
<defs>
<font id="iconfont" horiz-adv-x="1024" >
  <font-face 
    font-family="iconfont"
    font-weight="500"
    font-stretch="normal"
    units-per-em="1024"
    panose-1="2 0 6 3 0 0 0 0 0 0"
    ascent="812"
    descent="-212"
    x-height="792"
    bbox="0 -212 1025.11 812"
    underline-thickness="50"
    underline-position="-100"
    unicode-range="U+0078-ED04"
  />
<missing-glyph horiz-adv-x="374" 
d="M34 0v682h272v-682h-272zM68 34h204v614h-204v-614z" />
    <glyph glyph-name=".notdef" horiz-adv-x="374" 
d="M34 0v682h272v-682h-272zM68 34h204v614h-204v-614z" />
    <glyph glyph-name=".null" horiz-adv-x="0" 
 />
    <glyph glyph-name="nonmarkingreturn" horiz-adv-x="341" 
 />
    <glyph glyph-name="x" unicode="x" horiz-adv-x="1001" 
d="M281 543q-27 -1 -53 -1h-83q-18 0 -36.5 -6t-32.5 -18.5t-23 -32t-9 -45.5v-76h912v41q0 16 -0.5 30t-0.5 18q0 13 -5 29t-17 29.5t-31.5 22.5t-49.5 9h-133v-97h-438v97zM955 310v-52q0 -23 0.5 -52t0.5 -58t-10.5 -47.5t-26 -30t-33 -16t-31.5 -4.5q-14 -1 -29.5 -0.5
t-29.5 0.5h-32l-45 128h-439l-44 -128h-29h-34q-20 0 -45 1q-25 0 -41 9.5t-25.5 23t-13.5 29.5t-4 30v167h911zM163 247q-12 0 -21 -8.5t-9 -21.5t9 -21.5t21 -8.5q13 0 22 8.5t9 21.5t-9 21.5t-22 8.5zM316 123q-8 -26 -14 -48q-5 -19 -10.5 -37t-7.5 -25t-3 -15t1 -14.5
t9.5 -10.5t21.5 -4h37h67h81h80h64h36q23 0 34 12t2 38q-5 13 -9.5 30.5t-9.5 34.5q-5 19 -11 39h-368zM336 498v228q0 11 2.5 23t10 21.5t20.5 15.5t34 6h188q31 0 51.5 -14.5t20.5 -52.5v-227h-327z" />
    <glyph glyph-name="uniE602" unicode="&#xe602;" horiz-adv-x="1025" 
d="M533 564q-5 7 -13 9t-15.5 0t-12.5 -9l-343 -399q-8 -10 -5 -17.5t16 -7.5h128q9 0 16.5 -4t11.5 -11.5t4 -16.5v-256q0 -8 4.5 -15.5t12 -12t15.5 -4.5h320q4 0 7.5 1t7 2.5t5.5 4.5l6 4q2 3 3.5 6t2 7t0.5 7v256q0 14 9.5 23t22.5 9h128q9 0 13.5 3.5t4 9t-5.5 12.5z
M192 652h640q18 0 32.5 9t23 23.5t8.5 31.5q0 27 -18.5 45.5t-45.5 18.5h-640q-17 0 -31.5 -8.5t-23.5 -23t-9 -32.5q0 -39 35 -57q15 -6 29 -7z" />
    <glyph glyph-name="uniE603" unicode="&#xe603;" horiz-adv-x="1025" 
d="M534 769q-9 10 -22 10t-22 -10l-356 -406q-9 -10 -5.5 -17.5t17.5 -7.5h133q14 0 23.5 -9.5t9.5 -22.5v-260q0 -13 10 -23t24 -10h332q14 0 24 10t10 23v260q0 6 2.5 12t7 10.5t10.5 7t13 2.5h133q14 0 17 7.5t-5 17.5zM445 -117q0 -8 -2 -16.5t-6.5 -15.5t-10.5 -13
t-13.5 -10.5t-16 -6.5t-17.5 -2q-28 0 -47.5 19t-19.5 45.5t19.5 45.5t47 19t47 -19t19.5 -46zM712 -116.5q0 -17.5 -9 -32.5t-24.5 -23.5t-33.5 -8.5q-28 0 -47.5 19t-19.5 45.5t19.5 45.5t47.5 19q18 0 33.5 -8.5t24.5 -23.5t9 -32.5zM379 -52h266v-129h-266v129z" />
    <glyph glyph-name="uniE604" unicode="&#xe604;" horiz-adv-x="1025" 
d="M491 -168q6 -7 13.5 -9.5t15.5 0t14 9.5l356 405q9 10 5.5 17.5t-17.5 7.5h-133q-13 0 -23 9.5t-10 22.5v260q0 14 -10 23.5t-23 9.5h-333q-14 0 -23.5 -9.5t-9.5 -23.5v-260q0 -8 -4.5 -15.5t-12 -12t-17.5 -4.5h-133q-5 0 -9 -1.5t-6 -3.5t-2.5 -5t1 -7t5.5 -8z
M579 717q0 13 5 25t14 20.5t21.5 14t25.5 5.5q28 0 47.5 -19t19.5 -46t-19.5 -46t-47.5 -19q-40 0 -59 35q-7 14 -7 30zM313 717q0 27 19.5 46t47 19t47 -19t19.5 -46t-19.5 -46t-47.5 -19q-40 0 -59 35q-7 14 -7 30zM379 782h266v-130h-266v130z" />
    <glyph glyph-name="uniE606" unicode="&#xe606;" horiz-adv-x="1025" 
d="M832 -149h-640q-79 0 -135.5 56.5t-56.5 136.5v384q0 26 18.5 45t45.5 19t45.5 -19t18.5 -45v-384q0 -27 19 -45.5t45 -18.5h640q13 0 25 5t20.5 13.5t13.5 20.5t5 25v384q0 26 18.5 45t45.5 19t45.5 -19t18.5 -45v-384q0 -80 -56.5 -136.5t-135.5 -56.5zM489 194
q10 -9 23 -9t23 9l210 211q10 9 7 16t-16 7h-64q-9 0 -16 4t-11.5 11.5t-4.5 16.5v128q0 5 -1.5 10t-4.5 9t-7 7t-9 4.5t-10 1.5h-192q-13 0 -22.5 -9.5t-9.5 -22.5v-128q0 -13 -9.5 -22.5t-22.5 -9.5h-64q-13 0 -16 -7t7 -16zM384 716q0 13 9.5 22.5t22.5 9.5t22.5 -9.5
t9.5 -22.5t-9.5 -22.5t-22.5 -9.5t-22.5 9.5t-9.5 22.5zM576 716q0 23 22 30q5 2 10 2q9 0 16 -4.5t11.5 -11.5t4.5 -16q0 -5 -1.5 -10t-4.5 -9t-7 -7t-9 -4.5t-10 -1.5q-3 0 -6.5 0.5t-5.5 1.5l-6 4q-2 1 -4.5 3t-4 4.5t-3 5.5t-2 6.5t-0.5 6.5zM416 748h192v-64h-192v64z
" />
    <glyph glyph-name="uniE609" unicode="&#xe609;" horiz-adv-x="1025" 
d="M960 -150q0 -13 -8 -22.5t-20 -9.5h-840q-5 0 -9 1.5t-7.5 4.5t-6 7t-4 9t-1.5 10q0 14 8 23.5t20 9.5h840q12 0 20 -9.5t8 -23.5zM855 539q-9 -9 -22 -9t-23 9l-135 138q-10 9 -10 22.5t10 23.5l45 46q9 9 22.5 9t22.5 -9l136 -138q9 -9 9 -22.5t-9 -23.5zM358 34
q-10 -9 -23 -9t-23 9l-135 138q-10 9 -10 22.5t9 23.5l408 413q9 9 22.5 9t22.5 -9l136 -138q6 -6 8 -14.5t0 -16.5t-8 -15zM131 126q-9 10 -17.5 7t-11.5 -16l-32 -166q-2 -8 0.5 -14.5t9 -9.5t15.5 -1l163 33q13 3 15.5 11.5t-6.5 17.5z" />
    <glyph glyph-name="uniE60A" unicode="&#xe60a;" horiz-adv-x="1025" 
d="M897 588h-129v128q0 27 -18.5 45.5t-45.5 18.5h-384q-13 0 -24.5 -5t-20.5 -13.5t-14 -20.5t-5 -25v-128h-128q-7 0 -14.5 -1.5t-13.5 -4.5t-11.5 -7.5t-10 -10t-7.5 -12t-5 -13.5t-2 -15q0 -26 19 -45t45 -19h64v-576q0 -13 5 -25t14 -20.5t20.5 -13.5t24.5 -5h512
q27 0 46 19t19 45v576h64q26 0 45 19t19 45q0 18 -9 32.5t-23.5 23t-31.5 8.5zM384 -52h-64v512h64v-512zM384 652h256v-64h-256v64zM544 -52h-64v512h64v-512zM704 -52h-64v512h64v-512z" />
    <glyph glyph-name="uniE60B" unicode="&#xe60b;" horiz-adv-x="1025" 
d="M448 -52q-112 0 -208 56t-152 151.5t-56 208.5t56 209t152 151.5t208 55.5q85 0 162 -33t132.5 -88.5t88.5 -132.5t33 -162q0 -34 -5 -67.5t-15.5 -64t-25.5 -59.5t-34 -54.5t-41.5 -48.5t-48.5 -41.5t-55 -33.5t-59.5 -25.5t-64 -16t-67.5 -5.5zM448 652
q-119 0 -203.5 -84.5t-84.5 -203.5t84.5 -203.5t203.5 -84.5q59 0 112.5 23t92 61.5t61 92t22.5 112t-22.5 111.5t-61 92t-92 61.5t-112.5 22.5zM992 -116q0 -26 -18.5 -45t-45.5 -19q-13 0 -24.5 5t-20 13.5t-14 20.5t-5.5 25q0 27 19 45.5t45 18.5q40 0 57 -35
q7 -14 7 -29zM778 125l192 -192l-91 -90l-192 192z" />
    <glyph glyph-name="uniE60D" unicode="&#xe60d;" horiz-adv-x="1025" 
d="M191 44q0 -8 -2 -16.5t-6.5 -15.5t-10 -13t-12.5 -10t-15.5 -6.5t-17.5 -2.5q-26 0 -45 19t-19 45.5t19 45t45 18.5q18 0 32.5 -8.5t23 -23t8.5 -32.5zM319 108h577v-128h-577v128zM383 44.5q0 -26.5 -18.5 -45.5t-45.5 -19q-17 0 -32 8.5t-23.5 23.5t-8.5 32
q0 27 19 45.5t45.5 18.5t45 -18.5t18.5 -45zM960 44q0 -26 -19 -45t-45.5 -19t-45 19t-18.5 45.5t18.5 45t45.5 18.5q17 0 31.5 -8.5t23.5 -23t9 -32.5zM191 301q0 -11 -3 -20.5t-9 -17.5t-14 -14t-17.5 -9.5t-20.5 -3.5q-26 0 -45 19t-19 46q0 17 8.5 31.5t23.5 23t32 8.5
q39 0 57 -34q7 -15 7 -29zM319 364h577v-128h-577v128zM383 301q0 -11 -3 -20.5t-9 -17.5t-14 -14t-17.5 -9.5t-20.5 -3.5q-13 0 -24.5 5.5t-20.5 14t-14 20t-5 25.5q0 10 3.5 19.5t9.5 17.5t13.5 14t17.5 9t20 3q39 0 57 -34q7 -15 7 -29zM960 301q0 -27 -19 -46t-45.5 -19
t-45 19t-18.5 46q0 17 8.5 31.5t23 23t32.5 8.5q39 0 57 -34q6 -15 7 -29zM191 557q0 -9 -2 -17.5t-6.5 -15.5t-10 -13t-12.5 -10t-15.5 -6t-17.5 -2q-26 0 -45 18.5t-19 45t19 45.5t45.5 19t45 -19t18.5 -45zM319 621h577v-128h-577v128zM383 556.5q0 -26.5 -18.5 -45
t-45 -18.5t-45.5 18.5t-19 45.5q0 13 5 24.5t14 20t20.5 14t24.5 5.5q27 0 45.5 -19t18.5 -45.5zM960 556.5q0 -26.5 -19 -45t-45.5 -18.5t-45 18.5t-18.5 45t18.5 45.5t45 19t45.5 -19t19 -45.5z" />
    <glyph glyph-name="uniE60E" unicode="&#xe60e;" horiz-adv-x="1025" 
d="M497 776q4 8 9.5 11t11 0t9.5 -11l134 -271q6 -13 19.5 -23t27.5 -12l299 -43q14 -2 16.5 -10.5t-7.5 -17.5l-216 -211q-10 -10 -15.5 -26.5t-2.5 -29.5l51 -298q2 -14 -5 -19t-19 2l-268 140q-8 5 -18.5 6t-21 0t-18.5 -6l-268 -140q-12 -7 -19 -2t-5 19l51 298
q2 9 0 19.5t-6.5 20t-11.5 16.5l-216 211q-10 9 -7.5 17.5t16.5 10.5l299 43q7 1 14 4.5t13.5 8t11.5 10.5t8 12z" />
    <glyph glyph-name="uniE60F" unicode="&#xe60f;" 
d="M960 684v-768h-896v768h896zM960 748h-896q-26 0 -45 -19t-19 -45v-768q0 -26 19 -45t45 -19h896q26 0 45 19t19 45v768q0 26 -19 45t-45 19zM832 524q0 -40 -28 -68t-68 -28t-68 28t-28 68t28 68t68 28t68 -28t28 -68zM896 -20h-768v128l224 384l256 -320h64l224 192
v-384z" />
    <glyph glyph-name="uniE611" unicode="&#xe611;" 
d="M988 420h-93q-13 52 -39 98l67 68q4 4 0 8l-135 135q-4 3 -8 0l-67 -68q-44 25 -93 39v87q0 6 -6 6h-191q-2 0 -3.5 -1.5t-1.5 -4.5v-88q-16 -4 -31.5 -9.5t-30.5 -13t-30 -15.5l-66 67q-4 3 -8 0l-135 -136q-4 -3 0 -7l66 -67q-24 -43 -37 -91h-110q-3 0 -4.5 -1.5
t-1.5 -3.5v-191q0 -6 6 -6h107q11 -46 34 -89l-76 -76q-3 -4 0 -8l136 -135q3 -4 7 0l72 72q48 -30 102 -44v-86q0 -3 1.5 -4.5t3.5 -1.5h191q6 0 6 6v86q51 14 96 41l58 -58q4 -4 7 0l135 135q4 4 0 8l-59 59q24 42 36 88h95q6 0 6 6v191q-2 4 -6 5zM512 115q-86 0 -147 61
t-61 147t61 147t147 61q34 0 66 -10.5t57.5 -29.5t44.5 -44.5t29.5 -57.5t10.5 -66q0 -86 -61 -147t-147 -61z" />
    <glyph glyph-name="uniE612" unicode="&#xe612;" 
d="M194 191h669l-334 369z" />
    <glyph glyph-name="uniE613" unicode="&#xe613;" 
d="M344 635v-670l369 335z" />
    <glyph glyph-name="uniE614" unicode="&#xe614;" 
d="M327 300l370 -335v670z" />
    <glyph glyph-name="uniE615" unicode="&#xe615;" 
d="M863 560h-669l335 -369z" />
    <glyph glyph-name="uniE619" unicode="&#xe619;" 
d="M327 635v-670l370 335z" />
    <glyph glyph-name="uniE61A" unicode="&#xe61a;" 
d="M277 542h478v-484h-478v484z" />
    <glyph glyph-name="uniE61B" unicode="&#xe61b;" horiz-adv-x="1025" 
d="M939 75q16 -19 19.5 -46t-1 -46t-11.5 -27q-3 -2 -9.5 -10.5t-20.5 -23t-40 -37.5q-21 -19 -51.5 -25.5t-67.5 -1t-59 11t-52 15.5q-45 14 -142 81t-190 156q-48 45 -89 99.5t-69 106t-46 92.5t-31 79q-5 16 -8.5 31t-5 25t-1.5 22v18q0 6 3 16.5t3.5 13t4.5 12.5t4 11
q9 24 28.5 44.5t60.5 43.5q16 10 29.5 14t24.5 2.5t16.5 -3t14 -7t9.5 -6.5q6 -3 19 -14.5t29 -27t31 -36.5t23 -40q11 -26 12.5 -47.5t-3.5 -35t-14 -22.5l-15 -15q-9 -9 -16 -15.5t-13 -10.5q-18 -13 -15 -53q1 -18 46.5 -72t75.5 -85q154 -156 197 -166q44 -10 67 15
q1 1 8.5 10t16.5 19t18 18q17 11 47 10.5t42 -8.5q2 -1 6.5 -3.5t10 -6t12.5 -7t15 -8.5l16 -10q8 -5 16.5 -11t16 -12t15 -13t13.5 -14z" />
    <glyph glyph-name="uniE61C" unicode="&#xe61c;" horiz-adv-x="1025" 
d="M640 240q45 54 74.5 110.5t29.5 115.5q0 117 -68 199.5t-163.5 82.5t-163.5 -82.5t-68 -199.5q0 -42 11.5 -79t31.5 -69.5t55 -75.5q20 -29 20.5 -53.5t-14 -42.5t-39 -34.5t-55 -29t-63.5 -27t-62 -28t-52 -31.5t-32 -38q-19 -40 -18 -90q0 -8 1 -11q3 -5 9 -5h876
q3 0 5 1.5t3 3.5q2 3 2 11q0 17 -1 32.5t-4 28t-8 21.5q-20 44 -129 84q-15 6 -44 16q-111 39 -143 67q-56 48 9 123z" />
    <glyph glyph-name="uniE61D" unicode="&#xe61d;" horiz-adv-x="1025" 
d="M800 140q-64 0 -110 -44l-308 177q0 5 0.5 9t1 8.5t0.5 9.5v3v3v4l317 184q21 -16 46.5 -25t52.5 -9q43 0 80 21.5t58.5 58t21.5 80.5q0 66 -47 113t-113 47t-113 -47t-47 -113q0 -24 7 -47l-299 -172q-11 13 -24.5 24t-29.5 18.5t-34 12t-36 4.5q-67 0 -113.5 -47
t-46.5 -113t47 -113t113 -47q67 0 114 48l305 -176q-3 -16 -3 -32q0 -44 21.5 -80.5t58.5 -58t80 -21.5q33 0 62.5 12.5t51 34t34 51t12.5 62.5q0 66 -47 113t-113 47z" />
    <glyph glyph-name="uniE61E" unicode="&#xe61e;" horiz-adv-x="1025" 
d="M639 415q0 -51 -36.5 -87.5t-87.5 -36.5q-34 0 -62.5 16.5t-45 45t-16.5 62.5q0 51 36.5 87.5t87.5 36.5t87.5 -36.5t36.5 -87.5zM214 -180l-14 2q-26 6 -40 28t-8 48q2 10 8.5 36.5t22.5 81t33 96.5q31 75 101 170.5t111 110.5q25 9 49 -2t33 -36q3 -7 4 -13.5
t0.5 -12.5t-3 -11.5t-6 -11t-8.5 -11t-11 -11t-14 -11.5q-6 -4 -23.5 -26.5t-38.5 -52.5t-42.5 -66.5t-32.5 -63.5q-30 -75 -58 -194q-5 -22 -23 -36t-40 -14zM515 50q-26 0 -45 19t-19 45.5t19 45.5t45 19q48 0 92 18.5t75.5 50.5t50.5 75.5t19 91.5q0 65 -31.5 119.5
t-86.5 86t-119 31.5t-118.5 -31.5t-86.5 -86t-32 -119.5q0 -33 9 -65q8 -26 -5 -49t-39 -30q-17 -4 -33 -0.5t-28.5 15.5t-17.5 29q-7 24 -10.5 49.5t-3.5 50.5q0 75 29 142.5t78 116t116.5 77.5t141.5 29q99 0 183 -48.5t133 -133t49 -183.5q0 -145 -100 -250
q-99 -105 -242 -114q-12 0 -23 -1z" />
    <glyph glyph-name="uniE624" unicode="&#xe624;" 
d="M864 812h-768q-40 0 -68 -28t-28 -68v-832q0 -40 28 -68t68 -28h768q40 0 68 28t28 68v832q0 40 -28 68t-68 28zM832 -84h-704v768h704v-768zM256 364h448v-64h-448v64zM256 236h448v-64h-448v64zM256 108h448v-64h-448v64zM256 492h448v-64h-448v64z" />
    <glyph glyph-name="uniE628" unicode="&#xe628;" 
d="M918 583q-11 15 -25 31.5t-29.5 34t-32.5 34.5q-53 52 -100 87q-18 13 -33.5 22t-26.5 13t-18 5.5t-13 1.5h-496q-33 0 -56.5 -23.5t-23.5 -56.5v-864q0 -33 23.5 -56.5t56.5 -23.5h736q33 0 56.5 23.5t23.5 56.5v624q0 33 -42 91zM785.5 637.5q42.5 -42.5 72.5 -81.5
h-154v154q39 -30 81.5 -72.5zM896 -132q0 -7 -4.5 -11.5t-11.5 -4.5h-736q-7 0 -11.5 4.5t-4.5 11.5v864q0 7 4.5 11.5t11.5 4.5h496v-224q0 -13 9.5 -22.5t22.5 -9.5h224v-624zM736 -20h-448q-13 0 -22.5 9.5t-9.5 22.5t9.5 22.5t22.5 9.5h448q13 0 22.5 -9.5t9.5 -22.5
t-9.5 -22.5t-22.5 -9.5zM736 108h-448q-13 0 -22.5 9.5t-9.5 22.5t9.5 22.5t22.5 9.5h448q13 0 22.5 -9.5t9.5 -22.5t-9.5 -22.5t-22.5 -9.5zM736 236h-448q-13 0 -22.5 9.5t-9.5 22.5t9.5 22.5t22.5 9.5h448q13 0 22.5 -9.5t9.5 -22.5t-9.5 -22.5t-22.5 -9.5z" />
    <glyph glyph-name="uniE63D" unicode="&#xe63d;" 
d="M801 272q1 0 1.5 1.5t1.5 1.5q5 13 6 26t-4 25.5t-15 22.5l-470 444q-19 18 -45.5 17.5t-44.5 -20t-17 -46t20 -44.5l421 -398l-420 -404q-19 -19 -19.5 -45t18.5 -45q9 -10 21 -15t25 -5q25 0 44 18l465 448l1 2l1 1l1 1l1 1q2 2 8 13z" />
    <glyph glyph-name="uniE63F" unicode="&#xe63f;" horiz-adv-x="1025" 
d="M873 652h-721q-49 0 -84.5 -35t-35.5 -85v-464q0 -50 35.5 -85t84.5 -35h721q49 0 84.5 35t35.5 85v464q0 50 -35.5 85t-84.5 35zM929 68q0 -15 -7.5 -28t-20.5 -20.5t-28 -7.5h-721q-15 0 -28 7.5t-20.5 20.5t-7.5 28v464q0 11 4.5 21.5t12 18t18 12t21.5 4.5h721
q15 0 28 -7.5t20.5 -20.5t7.5 -28v-464zM833 436l-321 -207l-320 207q-12 7 -24.5 4t-20 -14t-4.5 -24t14 -20l338 -218q4 -2 8.5 -3.5t8.5 -1.5q10 0 18 5l338 218q11 7 14 20t-4.5 24t-20.5 14t-24 -4z" />
    <glyph glyph-name="uniE640" unicode="&#xe640;" horiz-adv-x="1025" 
d="M768 -149q-19 0 -39.5 3t-41 8t-32 8.5t-28.5 8.5q-47 15 -140.5 80t-181.5 148q-29 28 -55.5 59t-47 60t-39 60t-31.5 56.5t-24 52t-17.5 43.5t-12.5 34q-12 39 -14 71t1 46t11 34l3 7q10 29 32 52t63 46q35 20 63 20q25 0 50 -17q13 -7 33.5 -24.5t44.5 -47t35 -56.5
q12 -28 14 -52t-3.5 -40t-11 -24.5t-11.5 -14.5t-15 -14q-18 -19 -29 -27q-1 0 -1.5 -1t-0.5 -4v-7v-10q3 -8 22.5 -33t43 -51.5t40.5 -43.5q60 -61 102 -97.5t52.5 -42.5t14.5 -7q24 -6 34 4l4 5q22 28 39 42q12 10 28.5 13.5t32.5 3.5q8 0 16 -0.5t21 -3.5t21 -9
q2 -1 14 -8q6 -3 9.5 -5t11 -6.5t12 -7.5t12 -7.5t13 -8.5t12.5 -9.5t12.5 -10.5t11.5 -10.5t11 -11.5q20 -24 25 -56t-1.5 -57t-18.5 -38q-2 -1 -3 -2.5t-3 -3.5q-19 -24 -61 -62q-7 -6 -15.5 -11.5t-18.5 -9.5t-20.5 -7t-22.5 -4.5t-25 -1.5zM237 688q-12 0 -33 -11
q-19 -11 -32 -21t-20 -18t-10.5 -14t-6.5 -14l-3 -8q-6 -15 -8.5 -25.5t-0.5 -33.5t12 -53q10 -29 24 -62.5t39 -82t64 -100t85 -95.5q84 -80 172 -141t126 -73q21 -7 35.5 -11t41 -9t46.5 -5q42 0 62 18q38 35 54 55q3 3 5 5.5t5 5.5q1 3 2.5 10.5t2 18t-2.5 22t-10 20.5
q-22 27 -88 63q-15 8 -19 11q-2 1 -4 1.5t-8 1t-12 0.5q-17 0 -23 -4q-12 -10 -31 -34l-6 -7q-33 -36 -91 -23q-12 3 -24.5 9.5t-58.5 45t-112 106.5q-19 19 -38.5 40t-53 65t-34.5 63q-5 54 26 76q6 4 22 19q10 11 16 17q4 4 6.5 12t0.5 22t-9 30q-11 28 -40 58.5t-42 37.5
q-2 1 -4 2.5t-5 2.5q-4 3 -6 4t-5 2t-6 1z" />
    <glyph glyph-name="uniE641" unicode="&#xe641;" horiz-adv-x="1025" 
d="M513 684q69 0 118 -64t49 -154q0 -94 -77 -185q-65 -75 -46 -145q6 -24 20.5 -43.5t31 -33.5t43 -27.5t47.5 -22t54 -20.5q126 -44 137 -67l2 -6h-757q1 3 2.5 6.5t2.5 7.5q11 23 126 71q30 13 49.5 22t43.5 23.5t39.5 28.5t29 33t19.5 42q19 61 -26 127q-4 6 -20 35.5
t-35.5 77.5t-19.5 76q0 88 49.5 153t117.5 65zM513 748q-63 0 -116 -38t-84 -103t-31 -141q0 -44 8 -79.5t26.5 -70t51.5 -75.5q20 -29 21 -53.5t-12.5 -42t-37.5 -34t-53.5 -29t-61 -27t-59.5 -28t-50.5 -32t-32.5 -38.5q-18 -39 -18 -89q0 -9 2 -11q1 -3 3.5 -4t4.5 -1
h877q5 0 8 5q2 2 2 11q0 25 -3.5 46.5t-9.5 35.5q-11 23 -42 43.5t-68.5 34.5t-78.5 28.5t-73.5 31t-52.5 36.5t-16.5 49.5t35.5 66.5q41 48 66.5 106.5t25.5 119.5q0 76 -31 141t-84 103t-116 38z" />
    <glyph glyph-name="uniE642" unicode="&#xe642;" horiz-adv-x="1025" 
d="M800 140q-78 0 -126 -61l-301 163q11 28 11 58q0 11 -1.5 22t-4.5 22l296 178q22 -29 55 -45.5t71 -16.5q44 0 80.5 21.5t58 58.5t21.5 80q0 66 -47 113t-113 47t-113 -47t-47 -113q0 -19 4 -37l-298 -180q-22 27 -54 42t-68 15q-19 0 -37 -4.5t-33.5 -12t-29.5 -18.5
t-25 -25t-19 -29.5t-12 -33.5t-4 -37q0 -66 47 -113t113 -47q62 0 108 42l311 -169q-3 -17 -3 -33q0 -22 6 -42.5t16 -38t25 -32.5t32.5 -25.5t38 -16t42.5 -5.5q66 0 113 47t47 113q0 43 -21.5 80t-58 58.5t-80.5 21.5zM800 716q26 0 48 -13t35 -35t13 -48t-13 -48t-35 -35
t-48 -13q-11 0 -22 2.5t-20.5 7t-17.5 11.5t-14.5 15t-11.5 17.5t-7.5 20.5t-2.5 22q0 19 7.5 37t20.5 31t31 20.5t37 7.5zM128 300q0 40 28 68t68 28t68 -28t28 -68t-28 -68t-68 -28t-68 28t-28 68zM800 -116q-40 0 -68 28t-28 68t28 68t68 28t68 -28t28 -68t-28 -68
t-68 -28z" />
    <glyph glyph-name="uniE643" unicode="&#xe643;" horiz-adv-x="1025" 
d="M512 233q70 0 119.5 49.5t49.5 120.5q0 34 -13.5 65.5t-36 54t-54 36t-65.5 13.5q-70 0 -120 -49.5t-50 -119.5q0 -23 6 -44.5t17 -40.5q-37 -32 -77.5 -94t-66.5 -126q-12 -29 -23.5 -65t-19 -61t-15.5 -56t-9 -37l-5 -18q-3 -14 4.5 -25.5t21.5 -14.5q4 -1 7 -1
q12 0 21.5 7t11.5 19q2 8 9 37t24.5 87.5t35.5 102.5q25 62 62 116.5t64 77.5q21 -16 47 -25t55 -9zM512 504q27 0 50.5 -13.5t37 -37t13.5 -50.5q0 -42 -29.5 -72t-71.5 -30t-72 30t-30 72q0 20 8 39t21.5 32.5t32.5 21.5t40 8zM512 780q-103 0 -189.5 -50.5t-137 -137.5
t-50.5 -189q0 -9 0.5 -18t1 -17.5t2 -17t3 -17.5t3.5 -17.5t4 -16.5q4 -14 16.5 -20.5t25.5 -2.5q7 1 12 5.5t8.5 10t4 12.5t-1.5 13q-12 42 -12 86q0 128 91 218.5t219 90.5t218.5 -90.5t90.5 -218.5t-90.5 -218.5t-218.5 -90.5q-7 0 -13.5 -3t-11 -7.5t-7 -10.5t-2.5 -13
q0 -14 10 -24t24 -10q51 0 100 13.5t90 38t76 59t59.5 76t38 90.5t13.5 100q0 76 -30 146t-80.5 120.5t-120.5 80.5t-146 30z" />
    <glyph glyph-name="uniE644" unicode="&#xe644;" horiz-adv-x="1026" 
d="M431 -124q-153 1 -274 65q-127 67 -150 177q-8 24 -6 51t5 48t12 43t15.5 36.5t15 28.5t12 19t6.5 8q136 175 244 228q24 12 46.5 20t43.5 12t40 4q38 0 61 -16t35 -32.5t15 -49.5q2 -18 -2 -36q67 24 110 24q58 -2 91 -23t43 -61q3 -11 3 -24t-3.5 -28.5t-8.5 -27.5
q89 -18 119 -89q23 -56 -4.5 -126.5t-97.5 -136.5q-50 -45 -153 -79.5t-218 -34.5zM441 555q-9 0 -18 -1.5t-22 -4.5t-29 -9t-34 -15q-95 -47 -223 -211q-3 -2 -5.5 -6t-9.5 -15.5t-12 -23t-12 -29t-9.5 -33.5t-4 -37t3.5 -39q18 -83 119 -136q22 -12 45 -21t47 -16
t49 -11.5t51.5 -6.5t53.5 -2q103 0 195 29.5t134 67.5q37 34 60.5 70t30 67t-2.5 57q-19 45 -84 55q-24 4 -35.5 14t-14.5 20q-4 6 -1 21t16 28q3 4 5.5 17t1.5 19q-3 12 -7 18.5t-20.5 14.5t-45.5 9q-37 0 -105 -25q-33 -12 -45 -12h-12l-12 9q-21 20 -5 59l4 12q2 4 3 11
t0 13q-1 16 -4.5 22t-16.5 14q-2 1 -3.5 2t-5 2t-9 2t-11.5 1zM392 -47q-111 0 -188 48.5t-87 125.5q-9 66 37 127q38 49 102 82.5t141 43.5q31 5 62 5q36 0 70.5 -6t63.5 -16.5t54 -26.5t43 -35t29.5 -42t14.5 -48q3 -22 0 -44t-12 -42.5t-23.5 -40t-33 -36.5t-42 -32
t-50 -26.5t-57 -20t-62.5 -12.5q-15 -2 -30.5 -3t-31.5 -1zM459 323q-27 0 -54 -3q-65 -9 -118.5 -36t-83.5 -67q-31 -41 -25 -82q8 -61 87 -96.5t181 -20.5q101 13 168.5 68t59.5 116q-7 53 -68 87t-147 34zM873 365q-4 0 -9 1q-7 3 -13 9t-7.5 13.5t0.5 15.5q18 58 -14 96
q-14 20 -42 28t-41 5t-23.5 3.5t-13.5 19.5q-2 8 0.5 15.5t8.5 13.5t14 7q29 7 74.5 -6t71.5 -48q51 -62 24 -151q-7 -22 -30 -22zM988 329h-7q-12 3 -19 13.5t-4 23.5q31 145 -79 233q-27 21 -56.5 33t-55.5 14.5t-41.5 2t-28.5 -3.5q-12 -2 -22.5 5t-13 19.5t4.5 23
t20 12.5q16 3 36 4t53 -2t70.5 -18.5t71.5 -42.5q68 -53 93.5 -129t6.5 -164q-1 -7 -5.5 -12.5t-10.5 -8.5t-13 -3zM543 177q-9 46 -54 71t-99 14q-22 -4 -41 -13.5t-33 -23t-23.5 -30t-12.5 -34.5t0 -36q9 -46 54 -71t99.5 -14t86.5 51t23 86zM379 93q-7 -1 -13 -1t-12 1
t-11 3.5t-9 6.5t-7 8.5t-4 9.5q-3 16 7.5 30.5t30 19t35.5 -3.5t20 -24q2 -7 1 -13t-4.5 -12t-8 -11t-11.5 -8.5t-14 -5.5zM443 158.5q-8 -1.5 -14.5 2t-8 10t3 12.5t12.5 7q6 1 10.5 0t8 -4t4.5 -7q1 -7 -3.5 -13t-12.5 -7.5z" />
    <glyph glyph-name="uniE647" unicode="&#xe647;" 
d="M512 301zM336 301q0 73 51.5 124.5t124.5 51.5t124.5 -51.5t51.5 -124.5q0 -48 -23.5 -88.5t-64 -64t-88.5 -23.5q-73 0 -124.5 51.5t-51.5 124.5zM512 812q-139 0 -257 -68.5t-186.5 -186.5t-68.5 -257t68.5 -257t186.5 -186.5t257 -68.5t257 68.5t186.5 186.5t68.5 257
t-68.5 257t-186.5 186.5t-257 68.5zM875 209h-60q-10 -30 -26 -57l44 -44q18 -18 18 -43.5t-18 -42.5l-43 -43q-17 -18 -42.5 -18t-43.5 18l-46 46q-27 -13 -55 -22v-66q0 -25 -17.5 -43t-43.5 -18h-60q-26 0 -43.5 18t-17.5 43v66q-28 9 -55 22l-46 -46q-18 -18 -43.5 -18
t-42.5 18l-43 43q-6 6 -10 13t-6 14.5t-2 15.5t2 15.5t6 14.5t10 13l44 44q-8 13 -14.5 27.5t-11.5 29.5h-60q-25 0 -43 17.5t-18 43.5v60q0 26 18 43.5t43 17.5h55q9 34 25 64l-38 37q-12 12 -16 27.5t0 31.5t16 27l43 43q8 9 19.5 13.5t23 4.5t23 -4.5t20.5 -13.5l35 -35
q10 6 21 11t22 9.5t23 7.5v49q0 10 3 19.5t8.5 17t13 13t17 8.5t19.5 3h60q17 0 31 -8t22 -22t8 -31v-49q35 -10 66 -28l35 35q9 9 20.5 13.5t23 4.5t23 -4.5t19.5 -13.5l43 -43q12 -11 16 -27t0 -31.5t-16 -27.5l-37 -37q7 -15 13 -31t11 -33h55q5 0 10 -0.5t9.5 -2
t8.5 -4.5l8 -4q4 -3 7.5 -6.5t6 -7t4.5 -8t3.5 -9t2.5 -9.5t1 -10v-60q0 -10 -3 -19.5t-8.5 -17t-13 -13t-17 -8.5t-19.5 -3z" />
    <glyph glyph-name="uniE649" unicode="&#xe649;" 
d="M223 272q0 -1 2 -4q3 -6 6 -9l1 -1l1 -1l1 -1l1 -2l465 -448q19 -18 44 -18q27 0 46 20q19 19 18.5 45t-19.5 45l-420 404l421 398q13 12 17.5 28.5t1 33t-15.5 28.5q-18 20 -44.5 20.5t-45.5 -17.5l-470 -444q-15 -14 -18.5 -35t5.5 -39q1 0 1.5 -1.5t1.5 -1.5z" />
    <glyph glyph-name="uniE64B" unicode="&#xe64b;" 
d="M957 408q-2 5 -5.5 9.5t-8.5 7.5t-11 4l-271 42l-120 259q-9 18 -29 18q-21 0 -29 -18l-122 -258l-271 -41q-19 -3 -25.5 -21.5t7.5 -32.5l196 -202l-47 -285q-3 -20 13.5 -31.5t33.5 -1.5l242 133l242 -134q7 -4 15 -4h1q13 0 22.5 9.5t9.5 22.5q0 6 -2 11l-45 279
l197 201q6 7 8 15.5t-1 17.5z" />
    <glyph glyph-name="uniE64C" unicode="&#xe64c;" 
d="M767 -148q-9 1 -15 4l-242 134l-242 -133l-4 -2q-2 -1 -4 -1.5t-4 -0.5h-5q-2 0 -4 0.5t-4.5 1t-4.5 2t-3 2.5q-17 11 -14 31l47 285l-196 202q-14 14 -8 32q2 6 6 10.5t9 7.5t10 4l156 26q13 3 23.5 -5t13 -21t-5.5 -23.5t-21 -13.5l-95 -16l166 -170q11 -12 8 -28
l-39 -235l200 110q15 8 31 -1l199 -110l-38 236q-3 16 9 27l164 169l-225 34q-2 1 -4.5 1.5t-4.5 1.5l-4 2q-2 1 -3.5 2.5t-3 3.5t-2.5 3.5t-2 3.5l-100 213l-100 -212q-5 -12 -17.5 -16.5t-24.5 1t-16.5 18t0.5 24.5l130 274q8 18 29 18q9 0 17 -5t12 -13l120 -259l271 -42
q19 -3 25 -21.5t-7 -32.5l-197 -201l46 -285q1 -9 -2.5 -17.5t-11.5 -13.5q-8 -6 -18 -6z" />
    <glyph glyph-name="uniE650" unicode="&#xe650;" 
d="M512 748q-146 0 -249 -103t-103 -249q0 -53 34 -127.5t76.5 -136.5t98 -130.5t80 -95.5t40.5 -44q9 -10 23 -10h1q14 0 23 11l109 125q219 268 219 408q0 146 -103 249t-249 103zM512 236q-66 0 -113 47t-47 113t47 113t113 47t113 -47t47 -113t-47 -113t-113 -47z" />
    <glyph glyph-name="uniE651" unicode="&#xe651;" 
d="M512 204q-79 0 -135.5 56.5t-56.5 135.5t56.5 135.5t135.5 56.5t135.5 -56.5t56.5 -135.5t-56.5 -135.5t-135.5 -56.5zM512 524q-53 0 -90.5 -37.5t-37.5 -90.5t37.5 -90.5t90.5 -37.5t90.5 37.5t37.5 90.5t-37.5 90.5t-90.5 37.5zM512 -148q-13 0 -22 9q-10 9 -10 22.5
t9 22.5q30 32 66 73.5t80.5 99.5t80 112.5t60 110.5t24.5 94q0 119 -84.5 203.5t-203.5 84.5t-203.5 -84.5t-84.5 -203.5q0 -57 52.5 -151.5t151.5 -215.5q9 -11 7.5 -24t-12 -21.5t-23.5 -7t-21 11.5q-219 268 -219 408q0 146 103 249t249 103t249 -103t103 -249
q0 -53 -34 -127.5t-76.5 -136.5t-98 -130.5t-80 -95.5t-40.5 -44q-9 -10 -23 -10z" />
    <glyph glyph-name="uniE653" unicode="&#xe653;" horiz-adv-x="1025" 
d="M896 300l-2 41q-2 12 4 24.5t17 18.5l52 30q10 6 13.5 18t-2.5 22l-99 171q-6 11 -18 14t-22 -3l-52 -30q-11 -6 -25 -5t-23 8q-14 11 -35 23q-9 5 -18 9.5t-14 6.5l-5 2q-7 3 -13.5 9.5t-10 15t-3.5 15.5v61q0 12 -8.5 20.5t-20.5 8.5h-198q-8 0 -14.5 -4t-10.5 -10.5
t-4 -14.5v-61q0 -7 -3.5 -15.5t-10 -15t-13.5 -9.5q-2 0 -5.5 -1.5t-13 -6.5t-18.5 -10q-4 -2 -7 -4l-6 -4q-3 -2 -5.5 -3.5t-4.5 -2.5l-4 -4q-2 -1 -3.5 -2t-2.5 -2h-1l-1 -1q-9 -7 -23 -8t-25 5l-52 30q-5 3 -10.5 3.5t-11 -0.5t-10 -4.5t-7.5 -9.5l-99 -171
q-6 -10 -3 -22t13 -18l52 -30q7 -4 12.5 -11t7.5 -15.5t1 -16.5q-2 -17 -2 -41q0 -11 0.5 -21.5t1.5 -15.5v-5q1 -7 -1 -16t-7.5 -16t-12.5 -11l-52 -30q-10 -6 -13 -17.5t3 -22.5l99 -171q6 -11 17.5 -14t21.5 3l53 30q6 4 15 5t17.5 -1t14.5 -7q13 -10 33 -21q9 -6 19 -11
t15 -7l5 -2q11 -5 19 -16.5t8 -23.5v-60q0 -8 4 -15t10.5 -10.5t14.5 -3.5h198q12 0 20.5 8.5t8.5 20.5v60q0 12 8 23.5t19 16.5q2 1 5.5 2.5t13 6t18.5 9.5l35 23q9 7 23 8t25 -5l52 -30q10 -6 22 -3t18 14l99 171q2 4 3 7.5t0.5 7.5t-1.5 7.5t-2.5 6.5t-4.5 6t-6 5l-52 30
q-11 6 -17 18.5t-4 24.5v5q1 5 1.5 15.5t0.5 21.5zM512 140q-66 0 -113 46.5t-47 113t47 113.5t113 47q44 0 80.5 -21.5t58 -58.5t21.5 -80q0 -67 -47 -113.5t-113 -46.5z" />
    <glyph glyph-name="uniE656" unicode="&#xe656;" 
d="M512 746q-91 0 -173.5 -35.5t-142 -95t-95 -142t-35.5 -173.5q0 -61 16 -118.5t45 -106.5t70 -90t90 -70t106.5 -45t118.5 -16q91 0 173.5 35.5t142 95t95 142t35.5 173.5t-35.5 173.5t-95 142t-142 95t-173.5 35.5zM727 374l-256 -259v-1q-2 -2 -6 -4q-1 0 -1.5 -0.5
t-1.5 -1t-2 -1.5q-6 -2 -12 -2t-12 2l-2 2q-1 0 -1 1q-6 3 -7 4v1h-1l-126 129q-6 6 -8 14.5t0.5 16.5t8.5 15q9 9 22.5 8.5t22.5 -9.5l103 -106l234 236q9 9 22.5 9t22.5 -9t9.5 -22.5t-9.5 -22.5z" />
    <glyph glyph-name="uniE657" unicode="&#xe657;" 
d="M512 -148q-185 0 -316.5 131.5t-131.5 316.5t131.5 316.5t316.5 131.5t316.5 -131.5t131.5 -316.5t-131.5 -316.5t-316.5 -131.5zM512 684q-104 0 -192.5 -51.5t-140 -140t-51.5 -192.5t51.5 -192.5t140 -140t192.5 -51.5t192.5 51.5t140 140t51.5 192.5t-51.5 192.5
t-140 140t-192.5 51.5zM727 418.5q-9 9.5 -22.5 9.5t-22.5 -9l-234 -236l-103 106q-9 9 -22.5 9.5t-23 -9t-9.5 -22.5t9 -23l126 -129h1v-1q1 -1 5 -4h2l1 -1l2 -2q6 -2 12 -2q7 0 12 2q1 1 2 1.5t1.5 1t1.5 0.5q4 2 6 4v1l256 259q10 9 9.5 22t-9.5 22.5z" />
    <glyph glyph-name="uniE658" unicode="&#xe658;" 
d="M512 748q-185 0 -316.5 -131.5t-131.5 -316.5t131.5 -316.5t316.5 -131.5t316.5 131.5t131.5 316.5t-131.5 316.5t-316.5 131.5zM695 162q6 -6 8 -14.5t0 -16.5t-8 -14q-10 -10 -23 -10t-23 10l-137 138l-138 -137q-10 -9 -23 -9q-6 0 -12 2.5t-10 7.5q-4 3 -6 6.5
t-3 7.5t-1 8t1 8t3.5 8t5.5 7l138 136l-138 138q-9 9 -9 22.5t9.5 23t22.5 9.5t23 -10l137 -138l138 137q10 9 23 9t22.5 -9.5t9.5 -22.5t-10 -23l-138 -136z" />
    <glyph glyph-name="uniE659" unicode="&#xe659;" 
d="M512 -148q-185 0 -316.5 131.5t-131.5 316.5t131.5 316.5t316.5 131.5t316.5 -131.5t131.5 -316.5t-131.5 -316.5t-316.5 -131.5zM512 684q-104 0 -192.5 -51.5t-140 -140t-51.5 -192.5t51.5 -192.5t140 -140t192.5 -51.5t192.5 51.5t140 140t51.5 192.5t-51.5 192.5
t-140 140t-192.5 51.5zM557 299l138 136q10 10 10 23t-9.5 22.5t-22.5 9.5t-23 -9l-138 -137l-137 137q-6 6 -14 8t-16.5 0t-14.5 -8q-9 -9 -9 -22.5t9 -22.5l136 -137l-137 -136q-9 -9 -9.5 -22.5t9.5 -22.5t22 -10q7 0 12.5 2.5t10.5 7.5l138 136l138 -140q10 -9 23 -9
t22.5 9.5t9.5 22.5t-9 23z" />
    <glyph glyph-name="uniE65A" unicode="&#xe65a;" 
d="M512 748q-185 0 -316.5 -131.5t-131.5 -316.5t131.5 -316.5t316.5 -131.5t316.5 131.5t131.5 316.5t-131.5 316.5t-316.5 131.5zM662 276l-160 -158q-10 -10 -23 -10q-6 0 -12 2.5t-11 7.5q-6 6 -8 14t0 16.5t9 14.5l137 136l-136 137q-10 9 -10 22.5t10 22.5q6 6 14 8
t16.5 0t14.5 -8l159 -160v0q4 -4 7 -10q7 -20 -7 -35z" />
    <glyph glyph-name="uniE65B" unicode="&#xe65b;" 
d="M512 -148q-185 0 -316.5 131.5t-131.5 316.5t131.5 316.5t316.5 131.5t316.5 -131.5t131.5 -316.5t-131.5 -316.5t-316.5 -131.5zM512 684q-159 0 -271.5 -112.5t-112.5 -271.5t112.5 -271.5t271.5 -112.5t271.5 112.5t112.5 271.5t-112.5 271.5t-271.5 112.5zM669 311
q-2 3 -3.5 5.5t-3.5 4.5v0l-159 160q-9 9 -22.5 9t-23 -9t-9.5 -22.5t10 -22.5l136 -137l-138 -136q-9 -9 -9 -22.5t9 -22.5q10 -9 23 -10q4 0 8 1t7.5 3.5t6.5 5.5l161 158q15 15 7 35z" />
    <glyph glyph-name="uniE65E" unicode="&#xe65e;" 
d="M512 748q-185 0 -316.5 -131.5t-131.5 -316.5t131.5 -316.5t316.5 -131.5t316.5 131.5t131.5 316.5t-131.5 316.5t-316.5 131.5zM671 236h-191q-9 0 -16 4.5t-11.5 11.5t-4.5 16v255q0 13 9.5 22.5t22.5 9.5t22.5 -9.5t9.5 -22.5v-223h159q14 0 23 -9.5t9 -22.5t-9 -22.5
t-23 -9.5z" />
    <glyph glyph-name="uniE65F" unicode="&#xe65f;" 
d="M512 748q-185 0 -316.5 -131.5t-131.5 -316.5t131.5 -316.5t316.5 -131.5t316.5 131.5t131.5 316.5t-131.5 316.5t-316.5 131.5zM512 -84q-104 0 -192.5 51.5t-140 140t-51.5 192.5t51.5 192.5t140 140t192.5 51.5t192.5 -51.5t140 -140t51.5 -192.5t-51.5 -192.5
t-140 -140t-192.5 -51.5zM672 300h-160v224q0 9 -4.5 16t-11.5 11.5t-16 4.5q-7 0 -12.5 -2.5t-10 -7t-7 -10.5t-2.5 -12v-256q0 -13 9.5 -22.5t22.5 -9.5h192q13 0 22.5 9.5t9.5 22.5t-9.5 22.5t-22.5 9.5z" />
    <glyph glyph-name="uniE661" unicode="&#xe661;" 
d="M890 481q-17 18 -39 5q-3 -3 -6 -5l-328 -331l-332 329q-6 7 -14.5 9t-16.5 -0.5t-14 -8.5q-10 -9 -10 -22.5t10 -22.5l353 -350h1l1 -1v-1q10 -9 23 -9t22 9l350 354q3 2 5 5.5t3 6.5t1.5 6.5t0 7.5t-1.5 7t-3 6t-5 6z" />
    <glyph glyph-name="uniE664" unicode="&#xe664;" 
d="M864 620h-352q0 40 -28 68t-68 28h-64q-40 0 -68 -28t-28 -68h-96q-40 0 -68 -28t-28 -68v-512q0 -40 28 -68t68 -28h704q40 0 68 28t28 68v512q0 40 -28 68t-68 28zM512 76q-79 0 -135.5 56.5t-56.5 135.5t56.5 135.5t135.5 56.5t135.5 -56.5t56.5 -135.5t-56.5 -135.5
t-135.5 -56.5zM816 396q-20 0 -34 14t-14 34t14 34t34 14t34 -14t14 -34t-14 -34t-34 -14z" />
    <glyph glyph-name="uniE665" unicode="&#xe665;" 
d="M512 76q-79 0 -135.5 56.5t-56.5 135.5t56.5 135.5t135.5 56.5t135.5 -56.5t56.5 -135.5t-56.5 -135.5t-135.5 -56.5zM512 396q-53 0 -90.5 -37.5t-37.5 -90.5t37.5 -90.5t90.5 -37.5t90.5 37.5t37.5 90.5t-37.5 90.5t-90.5 37.5zM864 -84h-704q-40 0 -68 28t-28 68v512
q0 40 28 68t68 28h96q13 0 22.5 -9.5t9.5 -22.5t-9.5 -22.5t-22.5 -9.5h-96q-13 0 -22.5 -9.5t-9.5 -22.5v-512q0 -13 9.5 -22.5t22.5 -9.5h704q13 0 22.5 9.5t9.5 22.5v512q0 13 -9.5 22.5t-22.5 9.5h-352q-13 0 -22.5 9.5t-9.5 22.5t9.5 22.5t22.5 9.5h352q40 0 68 -28
t28 -68v-512q0 -40 -28 -68t-68 -28zM816 476zM768 476q0 20 14 34t34 14t34 -14t14 -34t-14 -34t-34 -14t-34 14t-14 34zM480 684q0 -13 -9.5 -22.5t-22.5 -9.5h-128q-13 0 -22.5 9.5t-9.5 22.5t9.5 22.5t22.5 9.5h128q13 0 22.5 -9.5t9.5 -22.5z" />
    <glyph glyph-name="uniE666" unicode="&#xe666;" 
d="M832 684h-640q-40 0 -68 -28t-28 -68v-512q0 -40 28 -68t68 -28h211l86 -87q10 -9 23 -9t23 9l86 87h211q40 0 68 28t28 68v512q0 40 -28 68t-68 28zM336 300q-20 0 -34 14t-14 34t14 34t34 14t34 -14t14 -34t-14 -34t-34 -14zM528 300q-20 0 -34 14t-14 34t14 34t34 14
t34 -14t14 -34t-14 -34t-34 -14zM720 300q-20 0 -34 14t-14 34t14 34t34 14t34 -14t14 -34t-14 -34t-34 -14z" />
    <glyph glyph-name="uniE667" unicode="&#xe667;" 
d="M512 -116q-13 0 -23 9l-96 96q-9 10 -9 23t9 23q7 6 15 8t16 0t15 -8l73 -74l73 74q10 9 23 9h224q13 0 22.5 9.5t9.5 22.5v512q0 13 -9.5 22.5t-22.5 9.5h-640q-13 0 -22.5 -9.5t-9.5 -22.5v-512q0 -13 9.5 -22.5t22.5 -9.5h96q13 0 22.5 -9.5t9.5 -22.5t-9.5 -22.5
t-22.5 -9.5h-96q-40 0 -68 28t-28 68v512q0 40 28 68t68 28h640q40 0 68 -28t28 -68v-512q0 -40 -28 -68t-68 -28h-211l-86 -87q-10 -9 -23 -9zM336 300q-20 0 -34 14t-14 34t14 34t34 14t34 -14t14 -34t-14 -34t-34 -14zM528 300q-20 0 -34 14t-14 34t14 34t34 14t34 -14
t14 -34t-14 -34t-34 -14zM720 300q-20 0 -34 14t-14 34t14 34t34 14t34 -14t14 -34t-14 -34t-34 -14z" />
    <glyph glyph-name="uniE668" unicode="&#xe668;" 
d="M736 684q-102 0 -176 -70q-6 -5 -48 -48l-47 47q-74 71 -177 71q-106 0 -181 -75t-75 -181q0 -100 76 -182l317 -321q42 -41 87 -41t87 42l316 320l3 2q25 31 37.5 49.5t24.5 54t12 76.5q0 106 -75 181t-181 75z" />
    <glyph glyph-name="uniE669" unicode="&#xe669;" 
d="M512 -116q-45 0 -87 41l-319 323q-19 24 -28.5 37.5t-22 36.5t-18 49t-5.5 57q0 106 75 181t181 75q40 0 77.5 -12t69.5 -35q11 -7 13.5 -20t-5.5 -24t-21 -13.5t-24 5.5q-24 17 -52 26t-58 9q-79 0 -135.5 -56.5t-56.5 -135.5q0 -43 13 -70t46 -69l316 -319
q22 -22 41 -22q18 0 41 23l317 320q58 62 58 137q0 79 -56.5 135.5t-135.5 56.5q-75 0 -130 -50l-134 -134q-9 -10 -22 -10t-23 10q-6 6 -8 14t0 16.5t8 14.5l135 135q75 68 174 68q106 0 181 -75t75 -181q0 -100 -76 -182l-317 -320q-42 -42 -87 -42z" />
    <glyph glyph-name="uniE66A" unicode="&#xe66a;" 
d="M526 -112q-15 0 -32.5 9.5t-36.5 27.5l-182 183h-83q-40 0 -68 28t-28 68v192q0 40 28 68t68 28h83l182 183q37 37 69 37q13 0 23.5 -5.5t18.5 -19.5t8 -35v-704q0 -31 -15 -45.5t-35 -14.5zM688 82h-4h-4l-4 2q-2 0 -3.5 1t-3.5 3q-11 7 -13 20.5t6 23.5l12 18
q22 29 32 45t20 45t10 60q0 33 -9 60.5t-18.5 42.5t-29.5 42q-10 13 -17 23q-8 10 -6 23.5t13 20.5q7 5 15.5 6t16.5 -2.5t13 -10.5q3 -5 6.5 -9.5t9.5 -11.5q23 -31 34.5 -49.5t23.5 -55.5t12 -79q0 -41 -13 -79t-25 -57.5t-36 -51.5l-12 -17q-10 -13 -26 -13zM796 -27
q-12 0 -21 8q-10 9 -10.5 22t7.5 23q38 43 62 78.5t43 88t19 107.5q0 80 -33 144t-91 130q-8 10 -7.5 23t10.5 22q7 6 15.5 7.5t16.5 -1t14 -9.5q63 -73 101 -147.5t38 -168.5t-38 -168.5t-101 -147.5q-10 -11 -25 -11z" />
    <glyph glyph-name="uniE66B" unicode="&#xe66b;" 
d="M526 -112q-15 0 -32.5 9.5t-36.5 27.5l-182 183h-83q-40 0 -68 28t-28 68v192q0 40 28 68t68 28h83l182 183q37 37 69 37q13 0 23.5 -5.5t18.5 -19.5t8 -35v-704q0 -31 -15 -45.5t-35 -14.5zM192 428q-13 0 -22.5 -9.5t-9.5 -22.5v-192q0 -13 9.5 -22.5t22.5 -9.5h96
q13 0 23 -9l192 -192l9 -9v676q-5 -4 -9 -9l-192 -192q-10 -9 -23 -9h-96zM688 82h-4h-4l-4 2q-2 0 -3.5 1t-3.5 3q-11 7 -13 20.5t6 23.5l12 18q22 29 32 45t20 45t10 60q0 33 -9 60.5t-18.5 42.5t-29.5 42q-10 13 -17 23q-8 10 -6 23.5t13 20.5q7 5 15.5 6t16.5 -2.5
t13 -10.5q3 -5 6.5 -9.5t9.5 -11.5q23 -31 34.5 -49.5t23.5 -55.5t12 -79q0 -41 -13 -79t-25 -57.5t-36 -51.5l-12 -17q-10 -13 -26 -13zM796 -27q-12 0 -21 8q-10 9 -10.5 22t7.5 23q38 43 62 78.5t43 88t19 107.5q0 80 -33 144t-91 130q-8 10 -7.5 23t10.5 22
q7 6 15.5 7.5t16.5 -1t14 -9.5q63 -73 101 -147.5t38 -168.5t-38 -168.5t-101 -147.5q-10 -11 -25 -11z" />
    <glyph glyph-name="uniE679" unicode="&#xe679;" 
d="M672 -100q-20 0 -34 14l-352 352q-14 14 -14 34t14 34l352 352q9 9 21.5 12.5t25 0t21.5 -12.5t12.5 -21.5t0 -25t-12.5 -21.5l-318 -318l318 -318q9 -9 12.5 -21.5t0 -25t-12.5 -21.5q-7 -7 -16 -10.5t-18 -3.5z" />
    <glyph glyph-name="uniE69E" unicode="&#xe69e;" 
d="M826 257l-288 289q-9 9 -23 9l-1 1h-2h-4h-2l-4 -2q-1 0 -3 -1q-6 -2 -11 -7l-259 -259q-10 -9 -10 -22.5t9 -22.5q4 -3 7.5 -5t7.5 -3.5t8 -1.5q13 0 23 10l206 206v-564q0 -13 9.5 -22.5t22.5 -9.5t22.5 9.5t9.5 22.5v565l236 -237q5 -5 11 -7.5t12 -2.5q13 0 22.5 9.5
t9.5 22.5t-9 23zM864 620h-704q-13 0 -22.5 9.5t-9.5 22.5t9.5 22.5t22.5 9.5h704q13 0 22.5 -9.5t9.5 -22.5t-9.5 -22.5t-22.5 -9.5z" />
    <glyph glyph-name="uniE6A3" unicode="&#xe6a3;" 
d="M761 280l1 1t1 2q2 4 3 9t1.5 10t-0.5 10t-2.5 9.5t-4.5 9t-7 7.5l-353 334q-10 9 -22 12t-24.5 -0.5t-21.5 -13.5q-5 -5 -8.5 -12t-4.5 -14.5t0.5 -15t5 -14t9.5 -12.5l317 -299l-316 -305q-14 -13 -14.5 -33t13.5 -35q7 -7 16 -10.5t19 -3.5q19 0 33 13l350 338l1 1v1
q1 0 1 1h1q2 2 5 7q1 2 1 3z" />
    <glyph glyph-name="uniE6A4" unicode="&#xe6a4;" 
d="M939.5 555.5q-12.5 4.5 -24.5 -1t-16 -18.5l-25 -69q-45 100 -133 166q-91 68 -202.5 80.5t-214.5 -30.5t-172 -134q-50 -66 -70.5 -145.5t-9.5 -162.5q12 -82 54.5 -153t110.5 -121q55 -41 119.5 -62t131.5 -21q98 0 187.5 43t149.5 123q9 12 17.5 24.5t15.5 25.5
t13 26.5t11.5 27.5t9.5 28t7 29q3 13 -4 24t-20 14q-8 2 -16.5 -1t-14 -9t-7.5 -15q-16 -74 -63 -135q-35 -46 -82 -78.5t-99.5 -47.5t-107.5 -15t-109.5 18t-100.5 52q-57 43 -93 102.5t-46 129.5q-21 144 67 261q58 76 145.5 113t182 26t172.5 -68q42 -32 73.5 -74.5
t49.5 -92.5l-110 43q-13 5 -25 -0.5t-17 -17.5q-2 -6 -2 -12.5t2.5 -12t7 -10t10.5 -7.5l162 -63q6 -2 12 -2h1h2l2 -1q4 0 8 1t7 3t6 4.5t5.5 6t3.5 7.5l58 161q4 12 -1.5 24t-18 16.5z" />
    <glyph glyph-name="uniE6A6" unicode="&#xe6a6;" 
d="M928 588h-160v64q0 40 -28 68t-67 28h-321q-40 0 -68 -28t-28 -68v-64h-160q-13 0 -22.5 -9.5t-9.5 -22.5t9.5 -22.5t22.5 -9.5h832q13 0 22.5 9.5t9.5 22.5t-9.5 22.5t-22.5 9.5zM800 460h-576q-13 0 -23 -9q-9 -9 -9 -23v-480q0 -40 28 -68t68 -28h448q40 0 68 28
t28 68v480q0 13 -9.5 22.5t-22.5 9.5zM448 12q0 -13 -9.5 -22.5t-22.5 -9.5t-22.5 9.5t-9.5 22.5v352q0 13 9.5 22.5t22.5 9.5t22.5 -9.5t9.5 -22.5v-352zM640 12q0 -13 -9.5 -22.5t-22.5 -9.5t-22.5 9.5t-9.5 22.5v352q0 13 9.5 22.5t22.5 9.5t22.5 -9.5t9.5 -22.5v-352z
" />
    <glyph glyph-name="uniE6B4" unicode="&#xe6b4;" 
d="M608 44q-13 0 -22.5 9.5t-9.5 22.5v352q0 13 9.5 22.5t22.5 9.5t22.5 -9.5t9.5 -22.5v-352q0 -13 -9.5 -22.5t-22.5 -9.5zM416 44q-13 0 -22.5 9.5t-9.5 22.5v352q0 13 9.5 22.5t22.5 9.5t22.5 -9.5t9.5 -22.5v-352q0 -13 -9.5 -22.5t-22.5 -9.5zM928 588h-160v64
q0 40 -28 68t-67 28h-321q-40 0 -68 -28t-28 -68v-64h-160q-13 0 -22.5 -9.5t-9.5 -22.5t9.5 -22.5t22.5 -9.5h832q13 0 22.5 9.5t9.5 22.5t-9.5 22.5t-22.5 9.5zM320 652q0 13 9.5 22.5t22.5 9.5h321q8 0 15.5 -4t11.5 -11.5t4 -16.5v-64h-384v64zM736 -148h-448
q-40 0 -68 28t-28 68v480q0 9 4.5 16.5t11.5 11.5t16 4q13 0 22.5 -9t9.5 -23v-480q0 -13 9.5 -22.5t22.5 -9.5h448q13 0 22.5 9.5t9.5 22.5v479q0 7 2.5 13t7 10t10.5 6.5t12.5 2.5t12.5 -2.5t10 -6.5t6.5 -10t2.5 -13v-479q0 -40 -28 -68t-68 -28z" />
    <glyph glyph-name="uniE6BB" unicode="&#xe6bb;" 
d="M982 408l-409 320q-26 21 -62 21t-62 -21l-406 -321q-10 -8 -11.5 -21t6.5 -23.5t21 -12t24 6.5l13 11v-388q0 -40 34 -68t74 -28h640q38 0 61 26.5t23 69.5v389l14 -12q2 -1 3.5 -2t3 -1.5t3.5 -1.5t3.5 -1t3 -0.5t3.5 -0.5q7 0 14 3.5t11 9.5q4 5 6 11t1 12t-4 12
t-8 10zM608 15v-67h-64h-64h-64v67v112q0 31 25 54t71 23q24 0 43 -6.5t30 -18t17 -24.5t6 -28v-112z" />
    <glyph glyph-name="uniE6C0" unicode="&#xe6c0;" 
d="M512 44q-13 0 -22.5 9.5t-9.5 22.5v96q0 13 9.5 22.5t22.5 9.5t22.5 -9.5t9.5 -22.5v-96q0 -13 -9.5 -22.5t-22.5 -9.5zM832 -148h-640q-40 0 -68 28t-28 68v352q0 40 28 68t68 28h640q40 0 68 -28t28 -68v-352q0 -40 -28 -68t-68 -28zM192 332q-13 0 -22.5 -9.5
t-9.5 -22.5v-352q0 -13 9.5 -22.5t22.5 -9.5h640q13 0 22.5 9.5t9.5 22.5v352q0 13 -9.5 22.5t-22.5 9.5h-640zM736 332q-13 0 -22.5 9.5t-9.5 22.5v130q0 52 -29.5 96.5t-74 69t-90.5 24.5q-74 0 -132 -52.5t-58 -137.5v-130q0 -13 -9.5 -22.5t-22.5 -9.5t-22.5 9.5
t-9.5 22.5v130q0 76 38 135.5t95 89t121 29.5q23 0 46.5 -5t45.5 -14t43.5 -22t39.5 -29.5t33.5 -37t26.5 -43.5t17 -49.5t6 -53.5v-130q0 -13 -9.5 -22.5t-22.5 -9.5z" />
    <glyph glyph-name="uniE6C2" unicode="&#xe6c2;" 
d="M512 44q-13 0 -22.5 9.5t-9.5 22.5v96q0 13 9.5 22.5t22.5 9.5t22.5 -9.5t9.5 -22.5v-96q0 -13 -9.5 -22.5t-22.5 -9.5zM832 -148h-640q-40 0 -68 28t-28 68v384q0 40 28 68t68 28h640q40 0 68 -28t28 -68v-384q0 -40 -28 -68t-68 -28zM192 364q-13 0 -22.5 -9.5
t-9.5 -22.5v-384q0 -13 9.5 -22.5t22.5 -9.5h640q13 0 22.5 9.5t9.5 22.5v384q0 13 -9.5 22.5t-22.5 9.5h-640zM288 396q-13 0 -22.5 9.5t-9.5 22.5v65q0 58 23 107t61 81t85.5 49.5t96.5 17.5q76 0 143 -41t101 -108q6 -11 2 -24t-16 -19t-24.5 -1.5t-18.5 15.5
q-26 52 -77.5 83t-109.5 31q-79 0 -140.5 -53t-61.5 -138v-65q0 -13 -9.5 -22.5t-22.5 -9.5z" />
    <glyph glyph-name="uniE6DB" unicode="&#xe6db;" 
d="M726 211q-4 0 -7 1q-13 3 -20 14t-5 24q6 28 6 56q0 93 -54 168q-8 11 -6 24t13 21t24 5.5t21 -13.5q66 -92 66 -205q0 -35 -7 -69q-2 -11 -11 -18.5t-20 -7.5zM886 69q-7 0 -14 3q-7 4 -12 11t-5.5 15t2.5 17q41 84 41 179q0 156 -103 273q-9 10 -8 23.5t11 22t23 8
t22 -10.5q58 -66 88.5 -147.5t30.5 -168.5q0 -109 -47 -207q-8 -18 -29 -18zM864 -84q-13 0 -23 9l-703 704q-9 9 -9 22t9.5 22.5t22.5 9.5t22 -9l704 -703q9 -10 9 -23t-9.5 -22.5t-22.5 -9.5zM525 715q-5 0 -9.5 -0.5t-9.5 -2t-10 -4t-10 -5.5t-10 -6.5t-9.5 -7.5t-9.5 -9
l-93 -96l212 -212v287q0 25 -14.5 40.5t-36.5 15.5zM96 398v-196q0 -40 28 -67t68 -27h82l183 -190q34 -34 67 -34q23 0 37.5 16t14.5 41v159l-391 391q-38 -2 -63.5 -28.5t-25.5 -64.5z" />
    <glyph glyph-name="uniE6DE" unicode="&#xe6de;" 
d="M887 195l-353 350l-1 1h-1v1q-18 17 -39 4q-4 -2 -6 -5l-350 -353q-5 -5 -7.5 -11t-2.5 -12t2.5 -12t7.5 -10q3 -3 6.5 -5t7.5 -3t8 -1q14 0 23 9l328 331l332 -330q10 -9 23 -9q6 0 12 2.5t11 7.5q3 3 5.5 8t3 9.5t0 9.5t-3 9.5t-6.5 8.5z" />
    <glyph glyph-name="uniE6E3" unicode="&#xe6e3;" 
d="M864 428h-189q7 17 13 46.5t9 67.5t-2 76q-5 45 -30 77.5t-63 45.5q-14 5 -28.5 6.5t-27.5 -0.5t-24.5 -7.5t-19.5 -13.5q-12 -12 -22 -35t-15.5 -41t-13.5 -52q-17 -70 -28 -89q-20 -34 -57.5 -57.5t-51.5 -23.5h-90q-9 0 -16 -4.5t-11.5 -11.5t-4.5 -16v-448
q0 -13 9.5 -22.5t22.5 -9.5h87q8 0 45 -16t91.5 -32t104.5 -16h216q33 0 68.5 13t51 38.5t44 207.5t28.5 220q0 26 -15 48.5t-37 35.5t-44 13zM96 428q-13 0 -22.5 -9.5t-9.5 -22.5v-448q0 -9 4.5 -16t11.5 -11.5t16 -4.5q13 0 22.5 9.5t9.5 22.5v448q0 13 -9.5 22.5
t-22.5 9.5z" />
    <glyph glyph-name="uniE6E4" unicode="&#xe6e4;" 
d="M512 746q-73 0 -141 -22.5t-122.5 -64t-96 -96t-64 -122.5t-22.5 -141q0 -91 35.5 -173.5t95 -142t142 -95t173.5 -35.5t173.5 35.5t142 95t95 142t35.5 173.5t-35.5 173.5t-95 142t-142 95t-173.5 35.5zM544 76q0 -13 -9.5 -22.5t-22.5 -9.5t-22.5 9.5t-9.5 22.5v288
q0 13 9.5 22.5t22.5 9.5t22.5 -9.5t9.5 -22.5v-288zM512 460q-20 0 -34 14t-14 34t14 34t34 14t34 -14t14 -34t-14 -34t-34 -14z" />
    <glyph glyph-name="uniE6E5" unicode="&#xe6e5;" 
d="M512 -146q-91 0 -173.5 35.5t-142 95t-95 142t-35.5 173.5q0 61 16 118.5t45 106.5t70 90t90 70t106.5 45t118.5 16q91 0 173.5 -35.5t142 -95t95 -142t35.5 -173.5q0 -61 -16 -118.5t-45 -106.5t-70 -90t-90 -70t-106.5 -45t-118.5 -16zM512 682q-104 0 -192 -51
t-139 -139t-51 -192t51 -192t139 -139t192 -51t192 51t139 139t51 192t-51 192t-139 139t-192 51zM512 508zM464 508q0 20 14 34t34 14t34 -14t14 -34t-14 -34t-34 -14t-34 14t-14 34zM512 44q-13 0 -22.5 9.5t-9.5 22.5v288q0 13 9.5 22.5t22.5 9.5t22.5 -9.5t9.5 -22.5
v-288q0 -13 -9.5 -22.5t-22.5 -9.5z" />
    <glyph glyph-name="uniE6EA" unicode="&#xe6ea;" 
d="M952 318l-384 419q-15 17 -35.5 9t-20.5 -30v-225q-56 -4 -107 -20t-96 -43.5t-84 -67.5t-72 -91q-19 -30 -35 -64t-25 -58.5t-16.5 -49t-9 -33.5t-2.5 -14q-5 -23 15 -34t37 4q5 5 19 15.5t52.5 33.5t82 42.5t109 36.5t132.5 20v-284q0 -22 20 -30q6 -2 12 -2
q14 0 23 10l384 413q9 9 9 21.5t-8 21.5z" />
    <glyph glyph-name="uniE6EB" unicode="&#xe6eb;" 
d="M544 -148q-3 0 -6 0.5t-6 1.5q-9 4 -14.5 12t-5.5 18v287q-195 -9 -357 -122q-24 -17 -37 -28q-18 -16 -38 -5t-15 34q2 14 7.5 36t28 78.5t52.5 104.5q69 109 168.5 166t222.5 57q9 0 16 -4.5t11.5 -11.5t4.5 -16q0 -13 -9.5 -22.5t-22.5 -9.5q-68 0 -128 -21
t-100.5 -52t-74.5 -74.5t-53 -80t-35 -75.5q182 111 391 111q13 0 22.5 -9.5t9.5 -22.5v-238l308 330l-308 335v-43q0 -13 -9.5 -22.5t-22.5 -9.5t-22.5 9.5t-9.5 22.5v125q0 21 20.5 29t35.5 -8l384 -416q8 -9 8 -21.5t-9 -21.5l-384 -413q-9 -10 -23 -10z" />
    <glyph glyph-name="uniE6F3" unicode="&#xe6f3;" 
d="M769 108q-54 0 -91 -38l-310 172q4 7 6.5 13.5t4.5 14t3 15t1 15.5q0 17 -6 36l305 189q37 -33 85 -33q53 0 90.5 37.5t37.5 90.5t-37.5 90.5t-90.5 37.5t-90.5 -37.5t-37.5 -90.5q0 -10 2 -20.5t6 -20.5l-302 -188q-38 37 -90 37q-53 0 -90.5 -37.5t-37.5 -90.5
t37.5 -90.5t90.5 -37.5q38 0 70 21l321 -179q-5 -18 -5 -34q0 -53 37.5 -90.5t90.5 -37.5t90.5 37.5t37.5 90.5t-37.5 90.5t-90.5 37.5zM767 684q27 0 45.5 -19t18.5 -45q0 -10 -3 -20t-9 -18t-14 -14t-17.5 -9t-20.5 -3q-26 0 -45 18.5t-19 45.5q0 7 2 14.5t5 13.5t7.5 12
t10 10t11.5 7.5t13.5 5t14.5 1.5zM191 300q0 27 19 45.5t45.5 18.5t45 -18.5t18.5 -45t-18.5 -45.5t-45.5 -19q-9 0 -17 2.5t-15 6.5t-13 10t-10 13t-6.5 15t-2.5 17zM769 -84q-27 0 -45.5 19t-18.5 45q0 18 8.5 32.5t23 23t32.5 8.5q26 0 45 -18.5t19 -45.5
q0 -17 -8.5 -31.5t-23.5 -23.5t-32 -9z" />
    <glyph glyph-name="uniE716" unicode="&#xe716;" 
d="M937 619l-227 64q-7 2 -13.5 1t-12.5 -5q-4 -2 -7 -5.5t-5 -7.5t-2 -9q-5 -24 -14.5 -45t-23.5 -37t-32.5 -27.5t-40.5 -17.5t-47 -6t-52 16t-49 41t-37.5 46.5t-25.5 39.5q-5 10 -15.5 14.5t-21.5 1.5l-224 -64q-10 -3 -16.5 -11.5t-6.5 -19.5v-256q0 -15 11.5 -24.5
t26.5 -6.5l122 24v-345q0 -40 28 -68t68 -28h384q40 0 68 28t28 68v313l122 -24q15 -3 26 6q6 5 9 11.5t3 13.5v288q0 11 -6.5 19.5t-16.5 11.5zM672 12h-320q-13 0 -22.5 9.5t-9.5 22.5t9.5 22.5t22.5 9.5h320q13 0 22.5 -9.5t9.5 -22.5t-9.5 -22.5t-22.5 -9.5z" />
    <glyph glyph-name="uniE721" unicode="&#xe721;" 
d="M288 524h-128q-13 0 -22.5 -9.5t-9.5 -22.5v-544q0 -13 9.5 -22.5t22.5 -9.5h128q13 0 22.5 9.5t9.5 22.5v544q0 13 -9.5 22.5t-22.5 9.5zM576 332h-128q-13 0 -22.5 -9.5t-9.5 -22.5v-352q0 -13 9.5 -22.5t22.5 -9.5h128q13 0 22.5 9.5t9.5 22.5v352q0 13 -9.5 22.5
t-22.5 9.5zM864 684h-128q-13 0 -22.5 -9.5t-9.5 -22.5v-704q0 -13 9.5 -22.5t22.5 -9.5h128q13 0 22.5 9.5t9.5 22.5v704q0 13 -9.5 22.5t-22.5 9.5z" />
    <glyph glyph-name="uniE722" unicode="&#xe722;" 
d="M288 -84h-128q-13 0 -22.5 9.5t-9.5 22.5v544q0 13 9.5 22.5t22.5 9.5h128q13 0 22.5 -9.5t9.5 -22.5v-544q0 -13 -9.5 -22.5t-22.5 -9.5zM192 -20h64v480h-64v-480zM576 -84h-128q-13 0 -22.5 9.5t-9.5 22.5v352q0 13 9.5 22.5t22.5 9.5h128q13 0 22.5 -9.5t9.5 -22.5
v-352q0 -13 -9.5 -22.5t-22.5 -9.5zM480 -20h64v288h-64v-288zM864 -84h-128q-13 0 -22.5 9.5t-9.5 22.5v704q0 13 9.5 22.5t22.5 9.5h128q13 0 22.5 -9.5t9.5 -22.5v-704q0 -13 -9.5 -22.5t-22.5 -9.5zM768 -20h64v640h-64v-640z" />
    <glyph glyph-name="uniE72C" unicode="&#xe72c;" 
d="M843 684h-662q-12 0 -23.5 -2.5t-22 -7t-20 -11t-17 -14t-14 -17t-11 -20t-7 -22t-2.5 -23.5v-534q0 -48 34.5 -82.5t82.5 -34.5h662q48 0 82.5 34.5t34.5 82.5v534q0 48 -34.5 82.5t-82.5 34.5zM288 524q27 0 45.5 -18.5t18.5 -45.5t-18.5 -45.5t-45.5 -18.5t-45.5 18.5
t-18.5 45.5t18.5 45.5t45.5 18.5zM832 76q0 -13 -9.5 -22t-22.5 -9l-574 -1q-17 0 -26 12q-10 13 -5 29q2 5 4.5 12.5t11 26.5t18 36.5t25 38t33 35t40.5 24.5t48 10q14 0 26.5 -1.5t26 -4.5t21 -5.5t22.5 -6.5q68 -20 110 -14q14 3 22.5 17.5t20.5 52.5q8 26 13.5 40.5
t19.5 39t30.5 38t45.5 24.5t65 11q14 0 23 -9.5t9 -22.5l2 -127v-224z" />
    <glyph glyph-name="uniE735" unicode="&#xe735;" 
d="M641 200v18q127 89 127 321q0 56 -17 101t-49.5 76t-79.5 47.5t-106 16.5h-8q-79 0 -135.5 -28.5t-86.5 -83t-30 -129.5q0 -231 128 -321v-18q-76 -10 -139 -31.5t-106 -56.5t-43 -76q0 -185 416 -185t416 185q0 41 -43 76t-106 56t-138 32z" />
    <glyph glyph-name="uniE736" unicode="&#xe736;" 
d="M512 -148q-416 0 -416 184q0 42 43 77t106 56t139 31v19q-128 89 -128 321q0 113 66.5 176.5t185.5 63.5h8q39 0 73.5 -7.5t62.5 -21.5t49.5 -35t36.5 -47.5t22.5 -59t7.5 -69.5q0 -232 -127 -322v-18q75 -10 138 -31t106 -56t43 -77q0 -184 -416 -184zM508 716
q-28 0 -53 -4t-50.5 -16t-43.5 -31t-29.5 -51t-11.5 -74q0 -209 113 -277q15 -9 15 -27v-64q0 -5 -1.5 -9.5t-4 -8.5t-6 -7t-8 -4.5t-9.5 -2.5q-73 -7 -135 -26.5t-93 -40t-31 -37.5q0 -35 31.5 -60t85.5 -37.5t111 -17.5t124 -5t124 5t111 17.5t85.5 37.5t31.5 60
q0 27 -75.5 60t-183.5 44q-13 1 -21 10.5t-8 22.5l1 64q1 17 16 26q57 35 84 102.5t27 174.5q0 42 -11.5 74t-29.5 51t-43.5 31t-50.5 16t-53 4h-8z" />
    <glyph glyph-name="uniE74D" unicode="&#xe74d;" 
d="M815 590q-17 9 -33 -2l-206 -140v113q0 20 -17 29t-33 -2l-384 -261q-14 -10 -14 -27q0 -8 3.5 -15t10.5 -11l384 -262q4 -2 8.5 -3.5t9.5 -1.5q4 0 7.5 1t7.5 2q8 5 12.5 12.5t4.5 16.5v114l206 -141q4 -2 8.5 -3.5t9.5 -1.5q4 0 7.5 1t7.5 2q8 5 12.5 12.5t4.5 16.5
v522q0 20 -17 29z" />
    <glyph glyph-name="uniE74E" unicode="&#xe74e;" 
d="M882 326l-384 262q-7 5 -16 5.5t-17 -3.5q-17 -9 -17 -29v-113l-206 140q-16 11 -33 2q-8 -4 -12.5 -12t-4.5 -17v-522q0 -20 17 -29l15 -3q5 0 9.5 1.5t8.5 3.5l206 140v-113q0 -20 17 -29q7 -3 15 -3q10 0 18 5l384 262q14 9 14 26q0 4 -1 8t-3 7t-4.5 6t-5.5 5z" />
    <glyph glyph-name="uniE74F" unicode="&#xe74f;" 
d="M817 327l-512 324q-16 10 -32.5 1t-16.5 -28v-648q0 -18 17 -28q7 -4 15 -4q9 0 17 5l512 324q15 9 15 27t-15 27z" />
    <glyph glyph-name="uniE750" unicode="&#xe750;" 
d="M352 44q-13 0 -22.5 9.5t-9.5 22.5v448q0 13 9.5 22.5t22.5 9.5t22.5 -9.5t9.5 -22.5v-448q0 -13 -9.5 -22.5t-22.5 -9.5zM672 44q-13 0 -22.5 9.5t-9.5 22.5v448q0 13 9.5 22.5t22.5 9.5t22.5 -9.5t9.5 -22.5v-448q0 -13 -9.5 -22.5t-22.5 -9.5z" />
    <glyph glyph-name="uniE75E" unicode="&#xe75e;" 
d="M830 613q-64 64 -145.5 97.5t-171.5 33.5t-172 -33.5t-145 -97.5q-86 -86 -116.5 -201.5t0 -231t116.5 -201.5q63 -63 145 -97t172 -34t171.5 34t145.5 97q43 43 72.5 95.5t43.5 108t14 114t-14 113.5t-43.5 107.5t-72.5 95.5zM686 252l-254 -140q-7 -4 -15 -4
q-9 0 -17 5q-15 9 -15 27v287q0 18 16 27.5t32 -0.5l253 -146q16 -9 16 -28t-16 -28z" />
    <glyph glyph-name="uniE75F" unicode="&#xe75f;" 
d="M417 107q-3 0 -6 0.5t-5.5 1.5t-4.5 2q-8 5 -12 12t-4 16v293q0 13 9 22.5t22.5 9.5t23 -9.5t9.5 -22.5v-238l165 94l-120 83q-11 8 -13.5 21t5.5 24q5 7 12.5 10.5t16 3t15.5 -5.5l162 -112q14 -11 13 -28q0 -6 -2 -11t-5.5 -9t-8.5 -7l-256 -146q-8 -4 -16 -4z
M509.5 -147q-89.5 0 -171 34t-144.5 97q-31 32 -55.5 69t-41 77t-25 83.5t-8.5 87.5q0 60 15 116.5t44 107.5t71 93q21 21 44.5 39t48.5 32.5t52 26t55 19t57 11t59 3.5q89 0 170.5 -34t144.5 -97q66 -67 100.5 -150t34.5 -167t-34.5 -167t-100.5 -150q-63 -63 -144.5 -97
t-171 -34zM509.5 685q-38.5 0 -75.5 -7.5t-71 -21.5t-65.5 -35t-58.5 -48q-54 -55 -83 -125t-29 -147t29 -147t83 -124q36 -36 79.5 -61.5t92 -38.5t99.5 -13t99 13t91.5 38.5t79.5 61.5q76 76 102.5 173.5t0 195.5t-102.5 174q-27 27 -58.5 48t-65.5 35t-71 21.5t-75.5 7.5
z" />
    <glyph glyph-name="uniE767" unicode="&#xe767;" 
d="M863 329l-317 2v318q0 13 -9.5 22.5t-22.5 9.5t-22.5 -9.5t-9.5 -22.5v-318l-322 1q-14 0 -23 -9.5t-9.5 -22.5t9 -22.5t22.5 -9.5l323 -1v-319q0 -14 9.5 -23t22.5 -9t22.5 9t9.5 23v319l317 -2q13 0 22.5 9.5t9.5 23t-9 22.5t-23 9z" />
    <glyph glyph-name="uniE768" unicode="&#xe768;" 
d="M864 268h-701q-13 0 -22.5 9.5t-9.5 22.5q0 9 4.5 16t12 11.5t15.5 4.5h701q13 0 22.5 -9.5t9.5 -22.5q0 -7 -2.5 -12.5t-7 -10t-10.5 -7t-12 -2.5z" />
    <glyph glyph-name="uniE779" unicode="&#xe779;" 
d="M512 745q-121 0 -224.5 -51.5t-163.5 -140t-60 -192.5q0 -88 45.5 -166.5t128.5 -135.5l84 -52q-2 -11 -7 -30.5t-12 -42t-14 -43.5q-7 -19 8 -34q9 -8 22 -8q7 0 13 3q144 64 188 125q119 2 220.5 53.5t160.5 139.5t59 191q0 104 -60 192.5t-163.5 140t-224.5 51.5z
M580 268h-195q-24 0 -31 23l-1 9q0 24 22 31l10 1h195q13 0 22.5 -9.5t9.5 -22.5t-9.5 -22.5t-22.5 -9.5zM641 396h-256q-24 0 -31 23l-1 9q0 4 1 8.5t3 8t5 6.5t6.5 5t8 3t8.5 1h256q13 0 22.5 -9.5t9.5 -22.5q0 -6 -2.5 -12t-7 -10.5t-10.5 -7t-12 -2.5z" />
    <glyph glyph-name="uniE9B9" unicode="&#xe9b9;" 
d="M797 318.5q0 -7.5 -6 -13.5l-266 -266q-6 -6 -13.5 -6t-12.5 6l-267 266q-5 6 -5 13.5t5 12.5l29 29q6 6 13.5 6t12.5 -6l225 -224l224 224q6 6 13.5 6t13.5 -6l28 -29q6 -5 6 -12.5zM797 537.5q0 -7.5 -6 -12.5l-266 -267q-6 -5 -13.5 -5t-12.5 5l-267 267q-5 5 -5 12.5
t5 13.5l29 28q6 6 13.5 6t12.5 -6l225 -224l224 224q6 6 13.5 6t13.5 -6l28 -28q6 -6 6 -13.5z" />
    <glyph glyph-name="uniE9BA" unicode="&#xe9ba;" 
d="M578 25.5q0 -7.5 -6 -12.5l-29 -29q-5 -6 -12.5 -6t-13.5 6l-266 266q-6 6 -6 13.5t6 13.5l266 266q6 6 13.5 6t12.5 -6l29 -29q6 -5 6 -12.5t-6 -13.5l-225 -225l225 -224q6 -6 6 -13.5zM797 25.5q0 -7.5 -6 -12.5l-28 -29q-6 -6 -13.5 -6t-13.5 6l-266 266
q-6 6 -6 13.5t6 13.5l266 266q6 6 13.5 6t13.5 -6l28 -29q6 -5 6 -12.5t-6 -13.5l-224 -225l224 -224q6 -6 6 -13.5z" />
    <glyph glyph-name="uniE9BB" unicode="&#xe9bb;" 
d="M559 263.5q0 -7.5 -5 -13.5l-267 -266q-5 -6 -12.5 -6t-13.5 6l-29 29q-5 5 -5 12.5t5 13.5l225 224l-225 225q-5 6 -5 13.5t5 12.5l29 29q6 6 13.5 6t12.5 -6l267 -266q5 -6 5 -13.5zM779 263.5q0 -7.5 -6 -13.5l-266 -266q-6 -6 -13.5 -6t-13.5 6l-28 29q-6 5 -6 12.5
t6 13.5l224 224l-224 225q-6 6 -6 13.5t6 12.5l28 29q6 6 13.5 6t13.5 -6l266 -266q6 -6 6 -13.5z" />
    <glyph glyph-name="uniE9BC" unicode="&#xe9bc;" 
d="M797 62.5q0 -7.5 -6 -13.5l-28 -28q-6 -6 -13.5 -6t-13.5 6l-224 224l-225 -224q-5 -6 -12.5 -6t-13.5 6l-29 28q-5 6 -5 13.5t5 12.5l267 267q5 5 12.5 5t13.5 -5l266 -267q6 -5 6 -12.5zM797 281.5q0 -7.5 -6 -12.5l-28 -29q-6 -6 -13.5 -6t-13.5 6l-224 224l-225 -224
q-5 -6 -12.5 -6t-13.5 6l-29 29q-5 5 -5 12.5t5 13.5l267 266q5 6 12.5 6t13.5 -6l266 -266q6 -6 6 -13.5z" />
    <glyph glyph-name="uniE9BD" unicode="&#xe9bd;" 
d="M797 391.5q0 -7.5 -6 -13.5l-266 -266q-6 -6 -13.5 -6t-12.5 6l-267 266q-5 6 -5 13.5t5 13.5l29 28q6 6 13.5 6t12.5 -6l225 -224l224 224q6 6 13.5 6t13.5 -6l28 -28q6 -6 6 -13.5z" />
    <glyph glyph-name="uniE9BE" unicode="&#xe9be;" 
d="M687 501.5q0 -7.5 -5 -13.5l-225 -225l225 -224q5 -6 5 -13.5t-5 -12.5l-29 -29q-6 -6 -13.5 -6t-12.5 6l-267 266q-5 6 -5 13.5t5 13.5l267 266q5 6 12.5 6t13.5 -6l29 -29q5 -5 5 -12.5z" />
    <glyph glyph-name="uniE9BF" unicode="&#xe9bf;" 
d="M669 263.5q0 -7.5 -6 -13.5l-266 -266q-6 -6 -13.5 -6t-12.5 6l-29 29q-6 5 -6 12.5t6 13.5l225 224l-225 225q-6 6 -6 13.5t6 12.5l29 29q5 6 12.5 6t13.5 -6l266 -266q6 -6 6 -13.5z" />
    <glyph glyph-name="uniE9C0" unicode="&#xe9c0;" 
d="M797 135.5q0 -7.5 -6 -13.5l-28 -28q-6 -6 -13.5 -6t-13.5 6l-224 224l-225 -224q-5 -6 -12.5 -6t-13.5 6l-29 28q-5 6 -5 13.5t5 13.5l267 266q5 6 12.5 6t13.5 -6l266 -266q6 -6 6 -13.5z" />
    <glyph glyph-name="uniEAFC" unicode="&#xeafc;" 
d="M878 263q0 48 -18.5 105t-36.5 111t-18 95v19h-366v-19q0 -20 -7 -38.5t-21 -35.5t-26 -28.5t-31 -27.5q-5 -5 -8 -7q-47 -42 -83 -64q-13 -8 -39 -22q-2 -1 -13 -6t-20.5 -10.5t-20.5 -11.5t-17.5 -12t-6.5 -11q0 -41 17.5 -66t55.5 -25q25 0 48.5 8.5t39 18.5
t31.5 18.5t28 8.5v-329q0 -28 22 -50.5t51 -22.5q30 0 51.5 22t21.5 51v189q26 -19 59 -19q39 0 68 30q18 -11 39 -11t42 10.5t30 27.5q14 -3 32 -3q49 0 72.5 28t23.5 78v-1zM805 702q0 15 -11 26t-26 11t-26 -11t-11 -26t11 -25.5t26 -10.5t26 10.5t11 25.5zM951 266
q0 -81 -44.5 -131.5t-124.5 -49.5h-3q-43 -35 -101 -35q-13 0 -25 2q-31 -17 -68 -21v-97q0 -60 -43.5 -103t-103.5 -43q-59 0 -102 43.5t-43 102.5v214q-31 -13 -74 -13q-69 0 -107.5 47t-38.5 118q0 22 10 40t28.5 31.5t36 23t41 21t35.5 18.5q31 20 74 57q1 2 9.5 8.5
t12.5 10.5l12 12q8 8 13 14t10.5 12.5t8 13t2.5 12.5v165q0 30 21.5 51.5t51.5 21.5h366q30 0 51.5 -21.5t21.5 -51.5v-165q0 -34 33 -127q40 -109 40 -181z" />
    <glyph glyph-name="uniEAFD" unicode="&#xeafd;" horiz-adv-x="1025" 
d="M786 7h19v366h-19q-20 0 -38.5 7t-35.5 21t-28.5 26t-27.5 31q-2 2 -2.5 3l-1.5 3l-3 2q-41 47 -64 83q-8 13 -22 39q-1 2 -6 13t-10.5 20.5t-11.5 20.5t-12 17.5t-11 6.5q-41 0 -66 -17.5t-25 -56.5q0 -24 8.5 -47.5t18.5 -39t19 -31.5t9 -28h-330q-28 0 -50.5 -22
t-22.5 -51q0 -30 22 -51.5t51 -21.5h190q-9 -10 -14.5 -27.5t-5.5 -31.5q0 -39 30 -68q-10 -18 -10 -39.5t10 -42t27 -29.5q-3 -14 -3 -32q0 -49 28 -72.5t78 -23.5q48 0 104.5 18.5t110.5 36.5t96 18h-1zM951 44q0 15 -11 26t-26 10.5t-25.5 -11t-10.5 -25.5t10.5 -25.5
t25.5 -11t26 10.5t11 26zM1024 373v-366q0 -30 -21.5 -51.5t-51.5 -21.5h-165q-33 0 -127 -33q-109 -40 -181 -40q-81 0 -131.5 44.5t-49.5 124.5v3q-35 43 -35 101q0 13 2 25q-19 32 -21 68h-97q-60 0 -103 43.5t-43 103.5q0 59 43.5 102t102.5 43h214q-13 35 -13 74
q0 69 47 107.5t118 38.5q22 0 40 -10t31.5 -28.5t23 -36t21 -41t18.5 -35.5q20 -31 57 -74q2 -1 8.5 -9.5t10.5 -12.5l12 -12q8 -8 14 -13t12.5 -10.5t13.5 -8t12 -2.5h165q30 0 51.5 -21.5t21.5 -51.5z" />
    <glyph glyph-name="uniEAFE" unicode="&#xeafe;" 
d="M146 44q0 15 -10.5 26t-25.5 10.5t-26 -11t-11 -25.5t11 -25.5t26 -11t25.5 10.5t10.5 26zM951 373q0 29 -22.5 51t-50.5 22h-329q0 12 8.5 28t18.5 31.5t18.5 39t8.5 48.5q0 38 -25 55.5t-66 17.5q-14 0 -51 -80q-14 -25 -22 -37q-22 -36 -64 -83q-40 -46 -57 -60
q-40 -33 -80 -33h-19v-366h19q41 0 95 -18t110.5 -36.5t102.5 -18.5q108 0 108 96q0 15 -3 32q18 9 28 30t10 42t-11 39q31 29 31 68q0 14 -6 31.5t-14 27.5h189q29 0 51 22t22 51zM1024 374q0 -60 -43 -103.5t-103 -43.5h-97q-2 -36 -21 -68q2 -12 2 -25q0 -57 -35 -101
q1 -80 -48 -126t-130 -46q-76 0 -184 39q-94 34 -127 34h-165q-30 0 -51.5 21.5t-21.5 51.5v366q0 30 21.5 51.5t51.5 21.5h165q5 0 12 2.5t13.5 8t12.5 10.5t14 13t12 12.5t10.5 12t8.5 9.5q37 43 57 74q7 12 18.5 35.5t21 41t23 36t31.5 28.5t40 10q71 0 117.5 -38.5
t46.5 -107.5q0 -39 -12 -74h214q59 0 102.5 -43t43.5 -102z" />
    <glyph glyph-name="uniEAFF" unicode="&#xeaff;" 
d="M805 -102q0 15 -11 25.5t-26 10.5t-26 -10.5t-11 -25.5t11 -26t26 -11t26 11t11 26zM878 334q0 108 -96 108q-15 0 -32 -3q-9 18 -30 28t-42 10t-39 -11q-29 31 -68 31q-14 0 -31.5 -6t-27.5 -14v189q0 29 -21.5 51t-51.5 22q-29 0 -51 -22.5t-22 -50.5v-329
q-12 0 -28 8.5t-31.5 18.5t-39 19t-48.5 9q-38 0 -55.5 -25.5t-17.5 -66.5q0 -14 80 -51q25 -14 37 -21q36 -23 83 -64q46 -41 60 -58q33 -40 33 -80v-18h366v18q0 41 18 95.5t36.5 110.5t18.5 102zM951 337q0 -76 -40 -184q-33 -94 -33 -127v-165q0 -30 -21.5 -51.5
t-51.5 -21.5h-366q-30 0 -51.5 21.5t-21.5 51.5v165q0 5 -2.5 12t-8 13.5t-10.5 12.5t-13 14t-12.5 12t-12.5 10.5t-9 8.5q-43 37 -74 57q-12 7 -35.5 18.5t-41 21t-36 23t-28.5 31.5t-10 40q0 71 38.5 117.5t107.5 46.5q39 0 74 -12v214q0 59 43 102.5t102 43.5
q60 0 103.5 -43t43.5 -103v-97q36 -2 68 -21q12 2 25 2q57 0 101 -35q80 1 126 -48t46 -130z" />
    <glyph glyph-name="uniEBD8" unicode="&#xebd8;" 
d="M750 300q0 -15 -11 -26l-311 -311q-11 -10 -26 -10t-25.5 10.5t-10.5 25.5v165h-256q-15 0 -26 10.5t-11 25.5v220q0 15 11 25.5t26 10.5h256v165q0 15 10.5 26t25.5 10.5t26 -10.5l311 -311q11 -11 11 -26zM951 501v-402q0 -68 -48.5 -116.5t-116.5 -48.5h-183
q-7 0 -12.5 5.5t-5.5 13.5q0 2 -0.5 11t0 15t1.5 13.5t5.5 11t11.5 3.5h183q38 0 65 27t27 65v402q0 38 -27 65t-65 27h-178h-7l-6 2l-5 3l-4 5l-1 8q0 2 -0.5 11t-0.5 15t1.5 13.5t6 11.5t11.5 4h183q68 0 116.5 -48.5t48.5 -116.5z" />
    <glyph glyph-name="uniEBD9" unicode="&#xebd9;" 
d="M402 -11q0 -2 0.5 -11t0.5 -15t-1.5 -13.5t-6 -11.5t-11.5 -4h-183q-68 0 -116 48.5t-48 116.5v402q0 68 48 116.5t116 48.5h183q8 0 13 -5.5t5 -13.5q0 -2 1 -11t0.5 -15t-2 -13.5t-5.5 -11t-12 -3.5h-183q-37 0 -64 -27t-27 -65v-402q0 -38 27 -65t64 -27h179h6l7 -2
l4 -3l4 -5l2 -8h-1zM933 300q0 -15 -11 -26l-311 -311q-11 -10 -26 -10t-25.5 10.5t-10.5 25.5v165h-256q-15 0 -26 10.5t-11 25.5v220q0 15 11 25.5t26 10.5h256v165q0 15 10.5 26t25.5 10.5t26 -10.5l311 -311q11 -11 11 -26z" />
    <glyph glyph-name="uniEC2A" unicode="&#xec2a;" 
d="M183 483q0 -15 -11 -26t-26 -11t-25.5 11t-10.5 26t10.5 25.5t25.5 10.5t26 -10.5t11 -25.5zM274 190v366q0 15 -10.5 26t-25.5 11h-165q-15 0 -25.5 -11t-10.5 -26v-366q0 -15 10.5 -25.5t25.5 -10.5h165q15 0 25.5 10.5t10.5 25.5zM919 275q32 -34 32 -85
q-1 -44 -33 -76.5t-77 -32.5h-158q2 -8 4.5 -14t6.5 -13t5 -10q11 -21 16 -32.5t10.5 -33.5t5.5 -44v-22q0 -9 -2.5 -26t-7 -28.5t-14 -25.5t-23 -23t-34 -15t-47.5 -6q-14 0 -25 11q-12 11 -20 28.5t-11 30t-7 34.5q-5 24 -7.5 34.5t-10 27.5t-18.5 28q-18 19 -57 68
q-28 37 -58 69.5t-43 33.5q-15 1 -25 11.5t-10 25.5v366q0 15 10.5 25.5t25.5 11.5q20 0 91 25q44 15 68.5 22.5t69 16.5t82.5 9h74q76 -1 112 -45q33 -39 28 -103q23 -21 31 -54q10 -35 0 -67q26 -35 25 -78q0 -18 -9 -43v-1z" />
    <glyph glyph-name="uniEC2B" unicode="&#xec2b;" 
d="M219 556q0 15 -10.5 26t-25.5 10.5t-26 -11t-11 -25.5t11 -25.5t26 -11t25.5 10.5t10.5 26zM878 227q0 20 -12.5 46t-30.5 27q8 10 14 27.5t6 31.5q0 39 -31 68q11 18 11 39t-10 42t-27 30q2 17 2 32q0 49 -28 72.5t-77 23.5h-73q-75 0 -196 -42q-3 -1 -16.5 -6t-20 -7
t-20 -6.5t-22 -6.5t-19 -3.5t-17.5 -1.5h-19v-366h19q9 0 20 -5t23 -15.5t22 -20.5t22 -25l20 -24q8 -9 18.5 -23.5t13.5 -17.5q31 -39 44 -52q23 -25 33.5 -62.5t17.5 -71.5t22 -49q55 0 73 27t18 83q0 34 -27.5 92t-27.5 91h201q29 0 51.5 22t22.5 51zM951 226
q0 -59 -43.5 -102t-103.5 -43h-100q27 -57 27 -110q0 -68 -20 -106q-20 -40 -58 -58.5t-86 -18.5q-29 0 -52 21q-19 19 -30.5 47t-14.5 51.5t-10 48.5t-18 37q-27 28 -61 72q-58 75 -78 89h-157q-30 0 -51.5 21.5t-21.5 51.5v366q0 30 21.5 51.5t51.5 21.5h165q12 0 79 23
q73 25 127 37.5t114 12.5h64q80 0 129.5 -45t49.5 -124v-3q34 -44 34 -101q0 -13 -2 -25q22 -38 22 -82q0 -21 -5 -40q28 -42 28 -93z" />
    <glyph glyph-name="uniEC3A" unicode="&#xec3a;" 
d="M402 26v402q0 8 -5 13t-13 5h-37q-8 0 -13 -5t-5 -13v-402q0 -8 5 -13.5t13 -5.5h37q8 0 13 5.5t5 13.5zM549 26v402q0 8 -5.5 13t-13.5 5h-36q-8 0 -13.5 -5t-5.5 -13v-402q0 -8 5.5 -13.5t13.5 -5.5h36q8 0 13.5 5.5t5.5 13.5zM695 26v402q0 8 -5 13t-13 5h-37
q-8 0 -13 -5t-5 -13v-402q0 -8 5 -13.5t13 -5.5h37q8 0 13 5.5t5 13.5zM384 593h256l-27 66q-4 6 -10 7h-181q-6 -1 -10 -7zM914 574v-36q0 -8 -5 -13.5t-13 -5.5h-55v-541q0 -48 -27 -82.5t-64 -34.5h-476q-37 0 -64 33.5t-27 80.5v544h-55q-8 0 -13 5.5t-5 13.5v36
q0 8 5 13.5t13 5.5h177l40 95q8 21 30.5 36t45.5 15h182q23 0 45.5 -15t30.5 -36l40 -95h177q8 0 13 -5.5t5 -13.5z" />
    <glyph glyph-name="uniEC3B" unicode="&#xec3b;" 
d="M402 391v-329q0 -8 -5 -13t-13 -5h-37q-8 0 -13 5t-5 13v329q0 8 5 13.5t13 5.5h37q8 0 13 -5.5t5 -13.5zM549 391v-329q0 -8 -5.5 -13t-13.5 -5h-36q-8 0 -13.5 5t-5.5 13v329q0 8 5.5 13.5t13.5 5.5h36q8 0 13.5 -5.5t5.5 -13.5zM695 391v-329q0 -8 -5 -13t-13 -5h-37
q-8 0 -13 5t-5 13v329q0 8 5 13.5t13 5.5h37q8 0 13 -5.5t5 -13.5zM768 -22v541h-512v-541q0 -13 4 -23.5t8.5 -15.5t5.5 -5h476q1 0 5.5 5t8.5 15.5t4 23.5zM384 593h256l-27 66q-4 6 -10 7h-181q-6 -1 -10 -7zM914 574v-36q0 -8 -5 -13.5t-13 -5.5h-55v-541
q0 -48 -27 -82.5t-64 -34.5h-476q-37 0 -64 33.5t-27 80.5v544h-55q-8 0 -13 5.5t-5 13.5v36q0 8 5 13.5t13 5.5h177l40 95q8 21 30.5 36t45.5 15h182q23 0 45.5 -15t30.5 -36l40 -95h177q8 0 13 -5.5t5 -13.5z" />
    <glyph glyph-name="uniEC42" unicode="&#xec42;" 
d="M219 44q0 15 -10.5 26t-25.5 10.5t-26 -11t-11 -25.5t11 -25.5t26 -11t25.5 10.5t10.5 26zM878 373q0 29 -22.5 51t-50.5 22h-202q0 33 27.5 91t27.5 92q0 56 -18 83t-73 27q-15 -15 -22 -48.5t-17.5 -71.5t-33.5 -63q-13 -13 -44 -52q-3 -3 -13.5 -17t-18 -23.5
t-20 -24.5t-22.5 -25t-22 -20t-23 -15.5t-20 -5.5h-18v-365h18q7 0 17.5 -2t19 -4t22 -6t20 -6.5t20 -7.5t16.5 -6q121 -42 196 -42h69q110 0 110 96q0 15 -3 32q17 9 27 30t10 42t-10 39q30 29 30 68q0 15 -6 32.5t-14 26.5q18 1 30.5 27t12.5 46zM951 374q0 -51 -28 -93
q5 -19 5 -40q0 -44 -22 -82q2 -12 2 -25q0 -57 -34 -101q0 -80 -49 -126t-130 -46h-73q-55 0 -108.5 13t-123.5 37q-67 23 -79 23h-165q-30 0 -51.5 21.5t-21.5 51.5v366q0 30 21.5 51.5t51.5 21.5h157q20 14 78 89q33 43 61 73q14 14 20.5 48.5t17.5 72.5t35 62
q23 21 52 21q48 0 86 -18.5t58 -58t20 -106.5q0 -53 -27 -110h100q60 0 103.5 -43t43.5 -102z" />
    <glyph glyph-name="uniEC43" unicode="&#xec43;" 
d="M183 44q0 15 -11 26t-26 11t-25.5 -11t-10.5 -26t10.5 -25.5t25.5 -11.5q15 0 26 11t11 26zM274 337v-366q0 -15 -10.5 -26t-25.5 -11h-165q-15 0 -26 11t-10 26v366q0 14 10.5 25t25.5 11h165q15 0 25.5 -11t10.5 -25zM951 337q0 -50 -32 -86q9 -25 9 -43q2 -43 -25 -78
q10 -32 0 -67q-8 -33 -30 -54q5 -64 -28 -103q-37 -44 -113 -45h-74q-38 0 -82.5 9t-69 16.5t-68.5 22.5q-71 25 -91 25q-14 1 -25 11.5t-11 25.5v366q0 15 10 25.5t25 11.5q13 1 43 33.5t58 69.5q39 49 58 68q10 11 17.5 28t10 27.5t7.5 34.5q4 22 7 34.5t11 30t20 28.5
q11 11 26 11q26 0 47 -6t34 -15t22.5 -23t14 -25.5t7 -28.5t2.5 -26t1 -22q0 -22 -5.5 -44t-11 -34.5t-15.5 -31.5q-2 -4 -6 -10.5t-6.5 -12.5t-4.5 -14h158q45 0 77.5 -32.5t32.5 -76.5z" />
    <glyph glyph-name="uniECE7" unicode="&#xece7;" 
d="M183 483q0 -15 -11 -26t-26 -11t-25.5 11t-10.5 26t10.5 25.5t25.5 10.5t26 -10.5t11 -25.5zM274 190v366q0 15 -10.5 26t-25.5 11h-165q-15 0 -25.5 -11t-10.5 -26v-366q0 -15 10.5 -25.5t25.5 -10.5h165q15 0 25.5 10.5t10.5 25.5zM919 275q32 -34 32 -85
q-1 -44 -33 -76.5t-77 -32.5h-158q2 -8 4.5 -14t6.5 -13t5 -10q11 -21 16 -32.5t10.5 -33.5t5.5 -44v-22q0 -9 -2.5 -26t-7 -28.5t-14 -25.5t-23 -23t-34 -15t-47.5 -6q-14 0 -25 11q-12 11 -20 28.5t-11 30t-7 34.5q-5 24 -7.5 34.5t-10 27.5t-18.5 28q-18 19 -57 68
q-28 37 -58 69.5t-43 33.5q-15 1 -25 11.5t-10 25.5v366q0 15 10.5 25.5t25.5 11.5q20 0 91 25q44 15 68.5 22.5t69 16.5t82.5 9h74q76 -1 112 -45q33 -39 28 -103q23 -21 31 -54q10 -35 0 -67q26 -35 25 -78q0 -18 -9 -43v-1z" />
    <glyph glyph-name="uniECE8" unicode="&#xece8;" 
d="M219 556q0 15 -10.5 26t-25.5 10.5t-26 -11t-11 -25.5t11 -25.5t26 -11t25.5 10.5t10.5 26zM878 227q0 20 -12.5 46t-30.5 27q8 10 14 27.5t6 31.5q0 39 -31 68q11 18 11 39t-10 42t-27 30q2 17 2 32q0 49 -28 72.5t-77 23.5h-73q-75 0 -196 -42q-3 -1 -16.5 -6t-20 -7
t-20 -6.5t-22 -6.5t-19 -3.5t-17.5 -1.5h-19v-366h19q9 0 20 -5t23 -15.5t22 -20.5t22 -25l20 -24q8 -9 18.5 -23.5t13.5 -17.5q31 -39 44 -52q23 -25 33.5 -62.5t17.5 -71.5t22 -49q55 0 73 27t18 83q0 34 -27.5 92t-27.5 91h201q29 0 51.5 22t22.5 51zM951 226
q0 -59 -43.5 -102t-103.5 -43h-100q27 -57 27 -110q0 -68 -20 -106q-20 -40 -58 -58.5t-86 -18.5q-29 0 -52 21q-19 19 -30.5 47t-14.5 51.5t-10 48.5t-18 37q-27 28 -61 72q-58 75 -78 89h-157q-30 0 -51.5 21.5t-21.5 51.5v366q0 30 21.5 51.5t51.5 21.5h165q12 0 79 23
q73 25 127 37.5t114 12.5h64q80 0 129.5 -45t49.5 -124v-3q34 -44 34 -101q0 -13 -2 -25q22 -38 22 -82q0 -21 -5 -40q28 -42 28 -93z" />
    <glyph glyph-name="uniED03" unicode="&#xed03;" 
d="M779 731q11 11 18.5 7.5t7.5 -17.5v-842q0 -14 -7.5 -17.5t-18.5 7.5l-406 405q-5 5 -7 11v-387q0 -15 -11 -26t-26 -11h-73q-15 0 -26 11t-11 26v804q0 15 11 26t26 11h73q15 0 26 -11t11 -26v-387q2 6 7 11z" />
    <glyph glyph-name="uniED04" unicode="&#xed04;" 
d="M245 -131q-11 -11 -18.5 -7.5t-7.5 17.5v842q0 14 7.5 17.5t18.5 -7.5l406 -405q4 -5 7 -11v387q0 15 11 26t26 11h73q15 0 26 -11t11 -26v-804q0 -15 -11 -26t-26 -11h-73q-15 0 -26 11t-11 26v387q-3 -6 -7 -11z" />
  </font>
</defs>
</svg>
